<svg xmlns="http://www.w3.org/2000/svg" width="1600" height="1000" viewBox="0 0 1600 1000">
<defs>
  <linearGradient id="bg" x1="0" y1="0" x2="0" y2="1"><stop offset="0" stop-color="#06161a"/><stop offset="0.55" stop-color="#0f3d42"/><stop offset="1" stop-color="#2fb3a4"/></linearGradient>
  <radialGradient id="vig" cx="0.5" cy="0.5" r="0.75"><stop offset="0.5" stop-color="#000" stop-opacity="0"/><stop offset="1" stop-color="#000" stop-opacity="0.55"/></radialGradient>
  <filter id="blurS" x="-50%" y="-50%" width="200%" height="200%"><feGaussianBlur stdDeviation="6"/></filter>
  <filter id="blurM" x="-80%" y="-80%" width="260%" height="260%"><feGaussianBlur stdDeviation="22"/></filter>
  <filter id="blurL" x="-100%" y="-100%" width="300%" height="300%"><feGaussianBlur stdDeviation="70"/></filter>
  <filter id="grain"><feTurbulence type="fractalNoise" baseFrequency="0.85" numOctaves="1" stitchTiles="stitch"/><feColorMatrix type="saturate" values="0"/><feComponentTransfer><feFuncA type="linear" slope="0.07"/></feComponentTransfer></filter>
  
</defs>
<rect width="1600" height="1000" fill="url(#bg)"/>
<circle cx="800" cy="200" r="500" fill="#39c4b4" opacity="0.4" filter="url(#blurL)"/><polygon points="200,0 240,0 300,1000 -180,1000" fill="#9ff5ea" opacity="0.07"/><circle cx="220" cy="10" r="60" fill="#fff" opacity="0.8" filter="url(#blurM)"/><polygon points="500,0 540,0 680,1000 200,1000" fill="#9ff5ea" opacity="0.07"/><circle cx="520" cy="10" r="60" fill="#fff" opacity="0.8" filter="url(#blurM)"/><polygon points="800,0 840,0 1060,1000 580,1000" fill="#9ff5ea" opacity="0.07"/><circle cx="820" cy="10" r="60" fill="#fff" opacity="0.8" filter="url(#blurM)"/><polygon points="1100,0 1140,0 1440,1000 960,1000" fill="#9ff5ea" opacity="0.07"/><circle cx="1120" cy="10" r="60" fill="#fff" opacity="0.8" filter="url(#blurM)"/><polygon points="1400,0 1440,0 1820,1000 1340,1000" fill="#9ff5ea" opacity="0.07"/><circle cx="1420" cy="10" r="60" fill="#fff" opacity="0.8" filter="url(#blurM)"/><circle cx="458.9" cy="96.5" r="4.1" fill="#9ff5ea" opacity="0.6585054159862921"/><circle cx="1105.9" cy="343.2" r="5.2" fill="#ffd166" opacity="0.7280368013074622"/><circle cx="239.1" cy="64.5" r="2.9" fill="#ff6b9d" opacity="0.623979918169789"/><circle cx="932.2" cy="343.9" r="5.7" fill="#fff" opacity="0.6866125575965271"/><circle cx="1233.5" cy="181.7" r="4" fill="#9ff5ea" opacity="0.8064768691314385"/><circle cx="91.6" cy="163.4" r="2.8" fill="#ffd166" opacity="0.7205524565419182"/><circle cx="626.4" cy="85.6" r="4" fill="#ff6b9d" opacity="0.44954275477211925"/><circle cx="870.1" cy="0.9" r="3.3" fill="#fff" opacity="0.5715871881460771"/><circle cx="903.6" cy="488.6" r="2.2" fill="#9ff5ea" opacity="0.6527116098208353"/><circle cx="1313.2" cy="512.7" r="4.7" fill="#ffd166" opacity="0.7793295224895701"/><circle cx="292.7" cy="376" r="5.6" fill="#ff6b9d" opacity="0.7631065803347156"/><circle cx="315.7" cy="28.6" r="2.4" fill="#fff" opacity="0.7135008722310886"/><circle cx="503.6" cy="541.9" r="3.3" fill="#9ff5ea" opacity="0.7982914861990139"/><circle cx="813.1" cy="506.2" r="5.6" fill="#ffd166" opacity="0.637407855107449"/><circle cx="1369.8" cy="261.8" r="2.2" fill="#ff6b9d" opacity="0.40037238362710925"/><circle cx="1471.7" cy="22.9" r="2.4" fill="#fff" opacity="0.8026688564335928"/><circle cx="1588.1" cy="303.4" r="3.9" fill="#9ff5ea" opacity="0.8213491276605055"/><circle cx="879.2" cy="4.8" r="2.7" fill="#ffd166" opacity="0.5751905916025862"/><circle cx="760.1" cy="274.4" r="2.8" fill="#ff6b9d" opacity="0.43971693466883155"/><circle cx="1435.9" cy="194.1" r="5.7" fill="#fff" opacity="0.5923946685856208"/><circle cx="1132" cy="508.5" r="5.6" fill="#9ff5ea" opacity="0.8083179448498413"/><circle cx="144.6" cy="552.8" r="5.2" fill="#ffd166" opacity="0.451694150432013"/><circle cx="1036.1" cy="88" r="3.9" fill="#ff6b9d" opacity="0.7334427847294137"/><circle cx="1501.7" cy="504.8" r="3.6" fill="#fff" opacity="0.4302201177692041"/><circle cx="830.6" cy="4.4" r="4.2" fill="#9ff5ea" opacity="0.8851821296615526"/><circle cx="1287.7" cy="315.4" r="3.6" fill="#ffd166" opacity="0.7357982313027606"/><circle cx="540.8" cy="56.9" r="3" fill="#ff6b9d" opacity="0.439028266328387"/><circle cx="457.7" cy="407.4" r="4.9" fill="#fff" opacity="0.7891752943163738"/><circle cx="399.4" cy="287.3" r="3.3" fill="#9ff5ea" opacity="0.7487266552401707"/><circle cx="1132.3" cy="416.2" r="2.4" fill="#ffd166" opacity="0.5374958151718602"/><circle cx="1087.3" cy="353.4" r="4" fill="#ff6b9d" opacity="0.5503774932352826"/><circle cx="687.9" cy="381.1" r="5.4" fill="#fff" opacity="0.7990285698091611"/><circle cx="474.2" cy="439.7" r="3.3" fill="#9ff5ea" opacity="0.6977872759802267"/><circle cx="1547.5" cy="474.8" r="2.1" fill="#ffd166" opacity="0.6391431642463431"/><circle cx="1259.2" cy="105" r="2.1" fill="#ff6b9d" opacity="0.4290703604696319"/><circle cx="1471.3" cy="470" r="5.4" fill="#fff" opacity="0.7775365970795974"/><circle cx="711.3" cy="468.3" r="2.4" fill="#9ff5ea" opacity="0.664500527526252"/><circle cx="1147.6" cy="144" r="4" fill="#ffd166" opacity="0.5267098219832406"/><circle cx="910.3" cy="131.9" r="5.2" fill="#ff6b9d" opacity="0.835612544300966"/><circle cx="282.7" cy="20.3" r="2.5" fill="#fff" opacity="0.7616943102097139"/><circle cx="1087.2" cy="441.4" r="2.6" fill="#9ff5ea" opacity="0.7455537267727778"/><circle cx="1392.3" cy="47.8" r="3.3" fill="#ffd166" opacity="0.42102861308958384"/><circle cx="864.8" cy="284.6" r="3.2" fill="#ff6b9d" opacity="0.4606855022488162"/><circle cx="491.7" cy="417.8" r="5.2" fill="#fff" opacity="0.5389849245315418"/><circle cx="1598.5" cy="226.2" r="2.2" fill="#9ff5ea" opacity="0.7334349718643353"/><circle cx="1486.6" cy="318.2" r="3.1" fill="#ffd166" opacity="0.8090456435224042"/><circle cx="1017" cy="381.4" r="5.2" fill="#ff6b9d" opacity="0.4563964730827138"/><circle cx="1463.7" cy="25.4" r="5.8" fill="#fff" opacity="0.6786299366271124"/><circle cx="362.6" cy="426.3" r="5.2" fill="#9ff5ea" opacity="0.6476831421954558"/><circle cx="1281" cy="333.4" r="2.6" fill="#ffd166" opacity="0.4750703004887328"/><circle cx="31.9" cy="545.9" r="4.7" fill="#ff6b9d" opacity="0.46752847682219"/><circle cx="1458.9" cy="520.8" r="2.3" fill="#fff" opacity="0.5628391243284568"/><circle cx="1316.7" cy="319.7" r="3" fill="#9ff5ea" opacity="0.7661378984106705"/><circle cx="970.8" cy="254.9" r="3.2" fill="#ffd166" opacity="0.532025252445601"/><circle cx="1444.4" cy="344.5" r="5" fill="#ff6b9d" opacity="0.6627903147367761"/><circle cx="533.3" cy="33.8" r="2.8" fill="#fff" opacity="0.4180605467176065"/><circle cx="1118.6" cy="595.4" r="3.1" fill="#9ff5ea" opacity="0.6561896824045107"/><circle cx="797.2" cy="165.2" r="5.4" fill="#ffd166" opacity="0.4526964491000399"/><circle cx="559.9" cy="323.7" r="4.4" fill="#ff6b9d" opacity="0.7660665693460033"/><circle cx="238" cy="83.7" r="3.3" fill="#fff" opacity="0.8462305441265926"/><circle cx="-38.3" cy="521.6" r="9.1" fill="rgba(7,7,11,0.35)"/><path d="M-55.5,542.6 Q-38.3,529.7 -21.1,542.6 L-23.2,579.1 L-53.3,579.1 Z" fill="rgba(7,7,11,0.35)"/><rect x="-52.2" y="577" width="11.8" height="43" fill="rgba(7,7,11,0.35)"/><rect x="-36.1" y="577" width="11.8" height="43" fill="rgba(7,7,11,0.35)"/><circle cx="32.2" cy="511.3" r="10.1" fill="rgba(7,7,11,0.35)"/><path d="M13.2,534.5 Q32.2,520.2 51.2,534.5 L48.8,574.9 L15.5,574.9 Z" fill="rgba(7,7,11,0.35)"/><rect x="16.7" y="572.5" width="13.1" height="47.5" fill="rgba(7,7,11,0.35)"/><rect x="34.5" y="572.5" width="13.1" height="47.5" fill="rgba(7,7,11,0.35)"/><path d="M46.4,536.8 L63,503.6" fill="none" stroke="rgba(7,7,11,0.35)" stroke-width="8.31562318732962" stroke-linecap="round" stroke-linejoin="round"/><circle cx="82.6" cy="513.4" r="9.9" fill="rgba(7,7,11,0.35)"/><path d="M63.9,536.1 Q82.6,522.2 101.2,536.1 L98.9,575.7 L66.3,575.7 Z" fill="rgba(7,7,11,0.35)"/><rect x="67.4" y="573.4" width="12.8" height="46.6" fill="rgba(7,7,11,0.35)"/><rect x="84.9" y="573.4" width="12.8" height="46.6" fill="rgba(7,7,11,0.35)"/><circle cx="163.5" cy="500.8" r="11.1" fill="rgba(7,7,11,0.35)"/><path d="M142.7,526.2 Q163.5,510.6 184.4,526.2 L181.8,570.5 L145.3,570.5 Z" fill="rgba(7,7,11,0.35)"/><rect x="146.6" y="567.9" width="14.3" height="52.1" fill="rgba(7,7,11,0.35)"/><rect x="166.1" y="567.9" width="14.3" height="52.1" fill="rgba(7,7,11,0.35)"/><circle cx="215.1" cy="498.3" r="11.3" fill="rgba(7,7,11,0.35)"/><path d="M193.9,524.2 Q215.1,508.3 236.4,524.2 L233.8,569.4 L196.5,569.4 Z" fill="rgba(7,7,11,0.35)"/><rect x="197.8" y="566.8" width="14.6" height="53.2" fill="rgba(7,7,11,0.35)"/><rect x="217.8" y="566.8" width="14.6" height="53.2" fill="rgba(7,7,11,0.35)"/><path d="M231.1,526.9 L249.7,489.6" fill="none" stroke="rgba(7,7,11,0.35)" stroke-width="9.312274729823695" stroke-linecap="round" stroke-linejoin="round"/><circle cx="296.1" cy="524.6" r="8.9" fill="rgba(7,7,11,0.35)"/><path d="M279.4,545 Q296.1,532.5 312.7,545 L310.6,580.4 L281.5,580.4 Z" fill="rgba(7,7,11,0.35)"/><rect x="282.5" y="578.3" width="11.5" height="41.7" fill="rgba(7,7,11,0.35)"/><rect x="298.1" y="578.3" width="11.5" height="41.7" fill="rgba(7,7,11,0.35)"/><path d="M308.6,547 L323.2,517.9" fill="none" stroke="rgba(7,7,11,0.35)" stroke-width="7.29501638526097" stroke-linecap="round" stroke-linejoin="round"/><circle cx="379.2" cy="509.8" r="10.2" fill="rgba(7,7,11,0.35)"/><path d="M359.9,533.3 Q379.2,518.8 398.5,533.3 L396.1,574.2 L362.3,574.2 Z" fill="rgba(7,7,11,0.35)"/><rect x="363.5" y="571.8" width="13.2" height="48.2" fill="rgba(7,7,11,0.35)"/><rect x="381.6" y="571.8" width="13.2" height="48.2" fill="rgba(7,7,11,0.35)"/><circle cx="434.7" cy="510.9" r="10.1" fill="rgba(7,7,11,0.35)"/><path d="M415.6,534.2 Q434.7,519.8 453.8,534.2 L451.4,574.7 L418,574.7 Z" fill="rgba(7,7,11,0.35)"/><rect x="419.2" y="572.3" width="13.1" height="47.7" fill="rgba(7,7,11,0.35)"/><rect x="437.1" y="572.3" width="13.1" height="47.7" fill="rgba(7,7,11,0.35)"/><path d="M449,536.5 L465.7,503.2" fill="none" stroke="rgba(7,7,11,0.35)" stroke-width="8.346148946620525" stroke-linecap="round" stroke-linejoin="round"/><circle cx="496.2" cy="508.2" r="10.4" fill="rgba(7,7,11,0.35)"/><path d="M476.7,532 Q496.2,517.3 515.8,532 L513.3,573.6 L479.1,573.6 Z" fill="rgba(7,7,11,0.35)"/><rect x="480.3" y="571.1" width="13.4" height="48.9" fill="rgba(7,7,11,0.35)"/><rect x="498.7" y="571.1" width="13.4" height="48.9" fill="rgba(7,7,11,0.35)"/><circle cx="556.1" cy="513.9" r="9.9" fill="rgba(7,7,11,0.35)"/><path d="M537.6,536.5 Q556.1,522.6 574.7,536.5 L572.3,575.9 L539.9,575.9 Z" fill="rgba(7,7,11,0.35)"/><rect x="541" y="573.6" width="12.8" height="46.4" fill="rgba(7,7,11,0.35)"/><rect x="558.4" y="573.6" width="12.8" height="46.4" fill="rgba(7,7,11,0.35)"/><path d="M570,538.9 L586.2,506.4" fill="none" stroke="rgba(7,7,11,0.35)" stroke-width="8.114869585018605" stroke-linecap="round" stroke-linejoin="round"/><circle cx="613.3" cy="494.1" r="11.7" fill="rgba(7,7,11,0.35)"/><path d="M591.3,520.9 Q613.3,504.4 635.3,520.9 L632.6,567.7 L594.1,567.7 Z" fill="rgba(7,7,11,0.35)"/><rect x="595.4" y="565" width="15.1" height="55" fill="rgba(7,7,11,0.35)"/><rect x="616.1" y="565" width="15.1" height="55" fill="rgba(7,7,11,0.35)"/><path d="M629.8,523.7 L649.1,485.2" fill="none" stroke="rgba(7,7,11,0.35)" stroke-width="9.630279279174284" stroke-linecap="round" stroke-linejoin="round"/><circle cx="689.8" cy="505.1" r="10.7" fill="rgba(7,7,11,0.35)"/><path d="M669.7,529.6 Q689.8,514.5 709.9,529.6 L707.4,572.3 L672.2,572.3 Z" fill="rgba(7,7,11,0.35)"/><rect x="673.5" y="569.8" width="13.8" height="50.2" fill="rgba(7,7,11,0.35)"/><rect x="692.3" y="569.8" width="13.8" height="50.2" fill="rgba(7,7,11,0.35)"/><circle cx="762.5" cy="496.3" r="11.5" fill="rgba(7,7,11,0.35)"/><path d="M740.9,522.7 Q762.5,506.4 784.1,522.7 L781.4,568.6 L743.6,568.6 Z" fill="rgba(7,7,11,0.35)"/><rect x="744.9" y="565.9" width="14.9" height="54.1" fill="rgba(7,7,11,0.35)"/><rect x="765.2" y="565.9" width="14.9" height="54.1" fill="rgba(7,7,11,0.35)"/><path d="M778.7,525.4 L797.7,487.5" fill="none" stroke="rgba(7,7,11,0.35)" stroke-width="9.463653830280528" stroke-linecap="round" stroke-linejoin="round"/><circle cx="831" cy="505.4" r="10.6" fill="rgba(7,7,11,0.35)"/><path d="M811,529.8 Q831,514.8 851.1,529.8 L848.6,572.4 L813.5,572.4 Z" fill="rgba(7,7,11,0.35)"/><rect x="814.8" y="569.9" width="13.8" height="50.1" fill="rgba(7,7,11,0.35)"/><rect x="833.5" y="569.9" width="13.8" height="50.1" fill="rgba(7,7,11,0.35)"/><path d="M846.1,532.3 L863.6,497.2" fill="none" stroke="rgba(7,7,11,0.35)" stroke-width="8.76785987438634" stroke-linecap="round" stroke-linejoin="round"/><circle cx="908.8" cy="503.8" r="10.8" fill="rgba(7,7,11,0.35)"/><path d="M888.5,528.6 Q908.8,513.4 929.1,528.6 L926.5,571.8 L891,571.8 Z" fill="rgba(7,7,11,0.35)"/><rect x="892.3" y="569.2" width="14" height="50.8" fill="rgba(7,7,11,0.35)"/><rect x="911.3" y="569.2" width="14" height="50.8" fill="rgba(7,7,11,0.35)"/><path d="M924,531.1 L941.8,495.6" fill="none" stroke="rgba(7,7,11,0.35)" stroke-width="8.887440461525694" stroke-linecap="round" stroke-linejoin="round"/><circle cx="980" cy="508.4" r="10.4" fill="rgba(7,7,11,0.35)"/><path d="M960.5,532.2 Q980,517.5 999.6,532.2 L997.1,573.6 L963,573.6 Z" fill="rgba(7,7,11,0.35)"/><rect x="964.2" y="571.2" width="13.4" height="48.8" fill="rgba(7,7,11,0.35)"/><rect x="982.5" y="571.2" width="13.4" height="48.8" fill="rgba(7,7,11,0.35)"/><path d="M994.7,534.6 L1011.8,500.5" fill="none" stroke="rgba(7,7,11,0.35)" stroke-width="8.539097091369332" stroke-linecap="round" stroke-linejoin="round"/><circle cx="1045.9" cy="526" r="8.7" fill="rgba(7,7,11,0.35)"/><path d="M1029.4,546 Q1045.9,533.7 1062.3,546 L1060.3,581 L1031.5,581 Z" fill="rgba(7,7,11,0.35)"/><rect x="1032.5" y="578.9" width="11.3" height="41.1" fill="rgba(7,7,11,0.35)"/><rect x="1047.9" y="578.9" width="11.3" height="41.1" fill="rgba(7,7,11,0.35)"/><path d="M1058.2,548.1 L1072.6,519.3" fill="none" stroke="rgba(7,7,11,0.35)" stroke-width="7.191909168837593" stroke-linecap="round" stroke-linejoin="round"/><circle cx="1113.4" cy="512.8" r="10" fill="rgba(7,7,11,0.35)"/><path d="M1094.7,535.7 Q1113.4,521.6 1132.1,535.7 L1129.8,575.5 L1097,575.5 Z" fill="rgba(7,7,11,0.35)"/><rect x="1098.2" y="573.1" width="12.9" height="46.9" fill="rgba(7,7,11,0.35)"/><rect x="1115.7" y="573.1" width="12.9" height="46.9" fill="rgba(7,7,11,0.35)"/><circle cx="1182.5" cy="515.2" r="9.7" fill="rgba(7,7,11,0.35)"/><path d="M1164.2,537.6 Q1182.5,523.8 1200.8,537.6 L1198.5,576.5 L1166.5,576.5 Z" fill="rgba(7,7,11,0.35)"/><rect x="1167.6" y="574.2" width="12.6" height="45.8" fill="rgba(7,7,11,0.35)"/><rect x="1184.8" y="574.2" width="12.6" height="45.8" fill="rgba(7,7,11,0.35)"/><path d="M1196.3,539.9 L1212.3,507.8" fill="none" stroke="rgba(7,7,11,0.35)" stroke-width="8.01432670374401" stroke-linecap="round" stroke-linejoin="round"/><circle cx="1242.5" cy="495.6" r="11.6" fill="rgba(7,7,11,0.35)"/><path d="M1220.8,522.1 Q1242.5,505.8 1264.3,522.1 L1261.6,568.3 L1223.5,568.3 Z" fill="rgba(7,7,11,0.35)"/><rect x="1224.9" y="565.6" width="15" height="54.4" fill="rgba(7,7,11,0.35)"/><rect x="1245.2" y="565.6" width="15" height="54.4" fill="rgba(7,7,11,0.35)"/><circle cx="1324.7" cy="516.8" r="9.6" fill="rgba(7,7,11,0.35)"/><path d="M1306.7,538.8 Q1324.7,525.3 1342.8,538.8 L1340.5,577.2 L1308.9,577.2 Z" fill="rgba(7,7,11,0.35)"/><rect x="1310.1" y="574.9" width="12.4" height="45.1" fill="rgba(7,7,11,0.35)"/><rect x="1327" y="574.9" width="12.4" height="45.1" fill="rgba(7,7,11,0.35)"/><path d="M1338.2,541.1 L1354,509.5" fill="none" stroke="rgba(7,7,11,0.35)" stroke-width="7.893093002205715" stroke-linecap="round" stroke-linejoin="round"/><circle cx="1396.1" cy="524.9" r="8.8" fill="rgba(7,7,11,0.35)"/><path d="M1379.4,545.1 Q1396.1,532.7 1412.7,545.1 L1410.6,580.5 L1381.5,580.5 Z" fill="rgba(7,7,11,0.35)"/><rect x="1382.5" y="578.4" width="11.4" height="41.6" fill="rgba(7,7,11,0.35)"/><rect x="1398.1" y="578.4" width="11.4" height="41.6" fill="rgba(7,7,11,0.35)"/><path d="M1408.5,547.2 L1423.1,518.1" fill="none" stroke="rgba(7,7,11,0.35)" stroke-width="7.279030721280725" stroke-linecap="round" stroke-linejoin="round"/><circle cx="1471.4" cy="503.9" r="10.8" fill="rgba(7,7,11,0.35)"/><path d="M1451.1,528.7 Q1471.4,513.4 1491.7,528.7 L1489.2,571.8 L1453.6,571.8 Z" fill="rgba(7,7,11,0.35)"/><rect x="1454.9" y="569.3" width="14" height="50.7" fill="rgba(7,7,11,0.35)"/><rect x="1473.9" y="569.3" width="14" height="50.7" fill="rgba(7,7,11,0.35)"/><path d="M1486.6,531.2 L1504.4,495.7" fill="none" stroke="rgba(7,7,11,0.35)" stroke-width="8.879425831222907" stroke-linecap="round" stroke-linejoin="round"/><circle cx="1544.9" cy="514.7" r="9.8" fill="rgba(7,7,11,0.35)"/><path d="M1526.5,537.2 Q1544.9,523.4 1563.3,537.2 L1561,576.3 L1528.8,576.3 Z" fill="rgba(7,7,11,0.35)"/><rect x="1529.9" y="574" width="12.7" height="46" fill="rgba(7,7,11,0.35)"/><rect x="1547.2" y="574" width="12.7" height="46" fill="rgba(7,7,11,0.35)"/><path d="M1558.7,539.5 L1574.8,507.2" fill="none" stroke="rgba(7,7,11,0.35)" stroke-width="8.053972390182317" stroke-linecap="round" stroke-linejoin="round"/><circle cx="1617.8" cy="526.4" r="8.7" fill="rgba(7,7,11,0.35)"/><path d="M1601.4,546.3 Q1617.8,534.1 1634.2,546.3 L1632.1,581.1 L1603.5,581.1 Z" fill="rgba(7,7,11,0.35)"/><rect x="1604.5" y="579.1" width="11.3" height="40.9" fill="rgba(7,7,11,0.35)"/><rect x="1619.8" y="579.1" width="11.3" height="40.9" fill="rgba(7,7,11,0.35)"/><path d="M1630.1,548.4 L1644.4,519.7" fill="none" stroke="rgba(7,7,11,0.35)" stroke-width="7.1614032235275955" stroke-linecap="round" stroke-linejoin="round"/><circle cx="11.6" cy="544.4" r="14.5" fill="rgba(7,7,11,0.55)"/><path d="M-15.7,577.5 Q11.6,557.1 38.8,577.5 L35.4,635.4 L-12.2,635.4 Z" fill="rgba(7,7,11,0.55)"/><rect x="-10.5" y="632" width="18.7" height="68" fill="rgba(7,7,11,0.55)"/><rect x="15" y="632" width="18.7" height="68" fill="rgba(7,7,11,0.55)"/><path d="M32,580.9 L55.8,533.3" fill="none" stroke="rgba(7,7,11,0.55)" stroke-width="11.907496144145263" stroke-linecap="round" stroke-linejoin="round"/><circle cx="116.9" cy="569.8" r="12.1" fill="rgba(7,7,11,0.55)"/><path d="M94.2,597.5 Q116.9,580.4 139.7,597.5 L136.9,645.9 L97,645.9 Z" fill="rgba(7,7,11,0.55)"/><rect x="98.4" y="643.1" width="15.7" height="56.9" fill="rgba(7,7,11,0.55)"/><rect x="119.8" y="643.1" width="15.7" height="56.9" fill="rgba(7,7,11,0.55)"/><path d="M134,600.4 L153.9,560.5" fill="none" stroke="rgba(7,7,11,0.55)" stroke-width="9.962816027482042" stroke-linecap="round" stroke-linejoin="round"/><circle cx="185.6" cy="547.7" r="14.1" fill="rgba(7,7,11,0.55)"/><path d="M159,580.2 Q185.6,560.2 212.2,580.2 L208.9,636.8 L162.3,636.8 Z" fill="rgba(7,7,11,0.55)"/><rect x="164" y="633.4" width="18.3" height="66.6" fill="rgba(7,7,11,0.55)"/><rect x="188.9" y="633.4" width="18.3" height="66.6" fill="rgba(7,7,11,0.55)"/><circle cx="285.2" cy="571.3" r="12" fill="rgba(7,7,11,0.55)"/><path d="M262.7,598.8 Q285.2,581.9 307.7,598.8 L304.9,646.6 L265.5,646.6 Z" fill="rgba(7,7,11,0.55)"/><rect x="266.9" y="643.8" width="15.5" height="56.2" fill="rgba(7,7,11,0.55)"/><rect x="288" y="643.8" width="15.5" height="56.2" fill="rgba(7,7,11,0.55)"/><path d="M302.1,601.6 L321.8,562.2" fill="none" stroke="rgba(7,7,11,0.55)" stroke-width="9.842681008251384" stroke-linecap="round" stroke-linejoin="round"/><circle cx="358.9" cy="571.8" r="11.9" fill="rgba(7,7,11,0.55)"/><path d="M336.4,599.2 Q358.9,582.4 381.3,599.2 L378.5,646.8 L339.2,646.8 Z" fill="rgba(7,7,11,0.55)"/><rect x="340.6" y="644" width="15.4" height="56" fill="rgba(7,7,11,0.55)"/><rect x="361.7" y="644" width="15.4" height="56" fill="rgba(7,7,11,0.55)"/><circle cx="459.5" cy="578.9" r="11.2" fill="rgba(7,7,11,0.55)"/><path d="M438.4,604.7 Q459.5,588.8 480.7,604.7 L478.1,649.7 L441,649.7 Z" fill="rgba(7,7,11,0.55)"/><rect x="442.3" y="647.1" width="14.6" height="52.9" fill="rgba(7,7,11,0.55)"/><rect x="462.2" y="647.1" width="14.6" height="52.9" fill="rgba(7,7,11,0.55)"/><path d="M475.4,607.4 L493.9,570.3" fill="none" stroke="rgba(7,7,11,0.55)" stroke-width="9.263137032813393" stroke-linecap="round" stroke-linejoin="round"/><circle cx="533.3" cy="546.9" r="14.2" fill="rgba(7,7,11,0.55)"/><path d="M506.5,579.6 Q533.3,559.5 560,579.6 L556.7,636.4 L509.8,636.4 Z" fill="rgba(7,7,11,0.55)"/><rect x="511.5" y="633.1" width="18.4" height="66.9" fill="rgba(7,7,11,0.55)"/><rect x="536.6" y="633.1" width="18.4" height="66.9" fill="rgba(7,7,11,0.55)"/><circle cx="617.3" cy="545.1" r="14.4" fill="rgba(7,7,11,0.55)"/><path d="M590.2,578.1 Q617.3,557.8 644.4,578.1 L641,635.7 L593.6,635.7 Z" fill="rgba(7,7,11,0.55)"/><rect x="595.3" y="632.3" width="18.6" height="67.7" fill="rgba(7,7,11,0.55)"/><rect x="620.7" y="632.3" width="18.6" height="67.7" fill="rgba(7,7,11,0.55)"/><path d="M637.6,581.5 L661.3,534.1" fill="none" stroke="rgba(7,7,11,0.55)" stroke-width="11.84819347942248" stroke-linecap="round" stroke-linejoin="round"/><circle cx="684.8" cy="565.7" r="12.5" fill="rgba(7,7,11,0.55)"/><path d="M661.3,594.3 Q684.8,576.7 708.2,594.3 L705.3,644.2 L664.2,644.2 Z" fill="rgba(7,7,11,0.55)"/><rect x="665.7" y="641.3" width="16.1" height="58.7" fill="rgba(7,7,11,0.55)"/><rect x="687.7" y="641.3" width="16.1" height="58.7" fill="rgba(7,7,11,0.55)"/><path d="M702.4,597.3 L722.9,556.2" fill="none" stroke="rgba(7,7,11,0.55)" stroke-width="10.272927109140438" stroke-linecap="round" stroke-linejoin="round"/><circle cx="784.1" cy="581.5" r="11" fill="rgba(7,7,11,0.55)"/><path d="M763.4,606.7 Q784.1,591.2 804.9,606.7 L802.3,650.8 L766,650.8 Z" fill="rgba(7,7,11,0.55)"/><rect x="767.3" y="648.2" width="14.3" height="51.8" fill="rgba(7,7,11,0.55)"/><rect x="786.7" y="648.2" width="14.3" height="51.8" fill="rgba(7,7,11,0.55)"/><circle cx="881.4" cy="555" r="13.5" fill="rgba(7,7,11,0.55)"/><path d="M856.1,585.9 Q881.4,566.9 906.8,585.9 L903.6,639.8 L859.2,639.8 Z" fill="rgba(7,7,11,0.55)"/><rect x="860.8" y="636.6" width="17.4" height="63.4" fill="rgba(7,7,11,0.55)"/><rect x="884.6" y="636.6" width="17.4" height="63.4" fill="rgba(7,7,11,0.55)"/><path d="M900.4,589.1 L922.6,544.7" fill="none" stroke="rgba(7,7,11,0.55)" stroke-width="11.09297498316737" stroke-linecap="round" stroke-linejoin="round"/><circle cx="978.2" cy="565.6" r="12.5" fill="rgba(7,7,11,0.55)"/><path d="M954.8,594.3 Q978.2,576.6 1001.7,594.3 L998.8,644.2 L957.7,644.2 Z" fill="rgba(7,7,11,0.55)"/><rect x="959.2" y="641.3" width="16.2" height="58.7" fill="rgba(7,7,11,0.55)"/><rect x="981.2" y="641.3" width="16.2" height="58.7" fill="rgba(7,7,11,0.55)"/><path d="M995.9,597.2 L1016.4,556.1" fill="none" stroke="rgba(7,7,11,0.55)" stroke-width="10.28021097010933" stroke-linecap="round" stroke-linejoin="round"/><circle cx="1049.3" cy="570.4" r="12" fill="rgba(7,7,11,0.55)"/><path d="M1026.7,598 Q1049.3,581.1 1072,598 L1069.2,646.2 L1029.5,646.2 Z" fill="rgba(7,7,11,0.55)"/><rect x="1030.9" y="643.4" width="15.6" height="56.6" fill="rgba(7,7,11,0.55)"/><rect x="1052.2" y="643.4" width="15.6" height="56.6" fill="rgba(7,7,11,0.55)"/><path d="M1066.3,600.9 L1086.1,561.2" fill="none" stroke="rgba(7,7,11,0.55)" stroke-width="9.91246282219654" stroke-linecap="round" stroke-linejoin="round"/><circle cx="1116.2" cy="557.9" r="13.2" fill="rgba(7,7,11,0.55)"/><path d="M1091.3,588.2 Q1116.2,569.5 1141,588.2 L1137.9,641 L1094.4,641 Z" fill="rgba(7,7,11,0.55)"/><rect x="1096" y="637.9" width="17.1" height="62.1" fill="rgba(7,7,11,0.55)"/><rect x="1119.3" y="637.9" width="17.1" height="62.1" fill="rgba(7,7,11,0.55)"/><path d="M1134.8,591.3 L1156.6,547.8" fill="none" stroke="rgba(7,7,11,0.55)" stroke-width="10.873110222886318" stroke-linecap="round" stroke-linejoin="round"/><circle cx="1195.1" cy="562.7" r="12.8" fill="rgba(7,7,11,0.55)"/><path d="M1171.1,591.9 Q1195.1,573.9 1219.1,591.9 L1216.1,643 L1174.1,643 Z" fill="rgba(7,7,11,0.55)"/><rect x="1175.6" y="640" width="16.5" height="60" fill="rgba(7,7,11,0.55)"/><rect x="1198.1" y="640" width="16.5" height="60" fill="rgba(7,7,11,0.55)"/><circle cx="1261.5" cy="565.7" r="12.5" fill="rgba(7,7,11,0.55)"/><path d="M1238,594.3 Q1261.5,576.7 1284.9,594.3 L1282,644.2 L1240.9,644.2 Z" fill="rgba(7,7,11,0.55)"/><rect x="1242.4" y="641.3" width="16.1" height="58.7" fill="rgba(7,7,11,0.55)"/><rect x="1264.4" y="641.3" width="16.1" height="58.7" fill="rgba(7,7,11,0.55)"/><circle cx="1328.6" cy="553.9" r="13.6" fill="rgba(7,7,11,0.55)"/><path d="M1303.1,585.1 Q1328.6,565.9 1354.2,585.1 L1351,639.3 L1306.3,639.3 Z" fill="rgba(7,7,11,0.55)"/><rect x="1307.9" y="636.1" width="17.6" height="63.9" fill="rgba(7,7,11,0.55)"/><rect x="1331.8" y="636.1" width="17.6" height="63.9" fill="rgba(7,7,11,0.55)"/><circle cx="1426.8" cy="581.5" r="11" fill="rgba(7,7,11,0.55)"/><path d="M1406.1,606.8 Q1426.8,591.3 1447.6,606.8 L1445,650.8 L1408.7,650.8 Z" fill="rgba(7,7,11,0.55)"/><rect x="1410" y="648.2" width="14.2" height="51.8" fill="rgba(7,7,11,0.55)"/><rect x="1429.4" y="648.2" width="14.2" height="51.8" fill="rgba(7,7,11,0.55)"/><path d="M1442.4,609.4 L1460.5,573.1" fill="none" stroke="rgba(7,7,11,0.55)" stroke-width="9.061820124951192" stroke-linecap="round" stroke-linejoin="round"/><circle cx="1532.6" cy="570.6" r="12" fill="rgba(7,7,11,0.55)"/><path d="M1510,598.2 Q1532.6,581.2 1555.2,598.2 L1552.4,646.3 L1512.8,646.3 Z" fill="rgba(7,7,11,0.55)"/><rect x="1514.2" y="643.4" width="15.6" height="56.6" fill="rgba(7,7,11,0.55)"/><rect x="1535.4" y="643.4" width="15.6" height="56.6" fill="rgba(7,7,11,0.55)"/><path d="M1549.6,601 L1569.4,561.4" fill="none" stroke="rgba(7,7,11,0.55)" stroke-width="9.897289204329718" stroke-linecap="round" stroke-linejoin="round"/><circle cx="1614.6" cy="566.6" r="12.4" fill="rgba(7,7,11,0.55)"/><path d="M1591.3,595 Q1614.6,577.5 1638,595 L1635.1,644.6 L1594.2,644.6 Z" fill="rgba(7,7,11,0.55)"/><rect x="1595.7" y="641.7" width="16" height="58.3" fill="rgba(7,7,11,0.55)"/><rect x="1617.6" y="641.7" width="16" height="58.3" fill="rgba(7,7,11,0.55)"/><circle cx="5.5" cy="607.7" r="17.9" fill="rgba(7,7,11,0.8)"/><path d="M-28.1,648.7 Q5.5,623.5 39.1,648.7 L34.9,720.1 L-23.9,720.1 Z" fill="rgba(7,7,11,0.8)"/><rect x="-21.8" y="715.9" width="23.1" height="84.1" fill="rgba(7,7,11,0.8)"/><rect x="9.7" y="715.9" width="23.1" height="84.1" fill="rgba(7,7,11,0.8)"/><circle cx="117.7" cy="622.5" r="16.5" fill="rgba(7,7,11,0.8)"/><path d="M86.7,660.4 Q117.7,637.1 148.7,660.4 L144.8,726.3 L90.5,726.3 Z" fill="rgba(7,7,11,0.8)"/><rect x="92.5" y="722.4" width="21.3" height="77.6" fill="rgba(7,7,11,0.8)"/><rect x="121.6" y="722.4" width="21.3" height="77.6" fill="rgba(7,7,11,0.8)"/><path d="M141,664.2 L168.1,609.9" fill="none" stroke="rgba(7,7,11,0.8)" stroke-width="13.576991297164934" stroke-linecap="round" stroke-linejoin="round"/><circle cx="260.2" cy="600" r="18.6" fill="rgba(7,7,11,0.8)"/><path d="M225.2,642.7 Q260.2,616.4 295.1,642.7 L290.8,717 L229.6,717 Z" fill="rgba(7,7,11,0.8)"/><rect x="231.8" y="712.6" width="24" height="87.4" fill="rgba(7,7,11,0.8)"/><rect x="264.5" y="712.6" width="24" height="87.4" fill="rgba(7,7,11,0.8)"/><path d="M286.4,647 L317,585.8" fill="none" stroke="rgba(7,7,11,0.8)" stroke-width="15.296832632925362" stroke-linecap="round" stroke-linejoin="round"/><circle cx="391.5" cy="643.2" r="14.6" fill="rgba(7,7,11,0.8)"/><path d="M364.1,676.6 Q391.5,656 418.9,676.6 L415.5,734.9 L367.5,734.9 Z" fill="rgba(7,7,11,0.8)"/><rect x="369.2" y="731.4" width="18.9" height="68.6" fill="rgba(7,7,11,0.8)"/><rect x="394.9" y="731.4" width="18.9" height="68.6" fill="rgba(7,7,11,0.8)"/><circle cx="524.9" cy="640.8" r="14.8" fill="rgba(7,7,11,0.8)"/><path d="M497.1,674.8 Q524.9,653.9 552.7,674.8 L549.2,733.9 L500.5,733.9 Z" fill="rgba(7,7,11,0.8)"/><rect x="502.3" y="730.4" width="19.1" height="69.6" fill="rgba(7,7,11,0.8)"/><rect x="528.4" y="730.4" width="19.1" height="69.6" fill="rgba(7,7,11,0.8)"/><circle cx="629.3" cy="619.1" r="16.8" fill="rgba(7,7,11,0.8)"/><path d="M597.6,657.6 Q629.3,633.9 660.9,657.6 L657,724.9 L601.6,724.9 Z" fill="rgba(7,7,11,0.8)"/><rect x="603.6" y="720.9" width="21.8" height="79.1" fill="rgba(7,7,11,0.8)"/><rect x="633.2" y="720.9" width="21.8" height="79.1" fill="rgba(7,7,11,0.8)"/><path d="M653,661.6 L680.7,606.2" fill="none" stroke="rgba(7,7,11,0.8)" stroke-width="13.841048045130448" stroke-linecap="round" stroke-linejoin="round"/><circle cx="726.2" cy="639.7" r="14.9" fill="rgba(7,7,11,0.8)"/><path d="M698.2,673.9 Q726.2,652.9 754.2,673.9 L750.7,733.4 L701.7,733.4 Z" fill="rgba(7,7,11,0.8)"/><rect x="703.4" y="729.9" width="19.3" height="70.1" fill="rgba(7,7,11,0.8)"/><rect x="729.7" y="729.9" width="19.3" height="70.1" fill="rgba(7,7,11,0.8)"/><path d="M747.2,677.4 L771.7,628.3" fill="none" stroke="rgba(7,7,11,0.8)" stroke-width="12.261218633223326" stroke-linecap="round" stroke-linejoin="round"/><circle cx="823.8" cy="622.2" r="16.5" fill="rgba(7,7,11,0.8)"/><path d="M792.7,660.1 Q823.8,636.8 854.9,660.1 L851,726.2 L796.6,726.2 Z" fill="rgba(7,7,11,0.8)"/><rect x="798.6" y="722.3" width="21.4" height="77.7" fill="rgba(7,7,11,0.8)"/><rect x="827.7" y="722.3" width="21.4" height="77.7" fill="rgba(7,7,11,0.8)"/><path d="M847.1,664 L874.3,609.6" fill="none" stroke="rgba(7,7,11,0.8)" stroke-width="13.60283213327639" stroke-linecap="round" stroke-linejoin="round"/><circle cx="953.5" cy="594.1" r="19.1" fill="rgba(7,7,11,0.8)"/><path d="M917.5,638 Q953.5,611 989.5,638 L985,714.5 L922,714.5 Z" fill="rgba(7,7,11,0.8)"/><rect x="924.2" y="710" width="24.8" height="90" fill="rgba(7,7,11,0.8)"/><rect x="958" y="710" width="24.8" height="90" fill="rgba(7,7,11,0.8)"/><path d="M980.5,642.5 L1012,579.5" fill="none" stroke="rgba(7,7,11,0.8)" stroke-width="15.753179387375713" stroke-linecap="round" stroke-linejoin="round"/><circle cx="1054.9" cy="595.7" r="19" fill="rgba(7,7,11,0.8)"/><path d="M1019.2,639.2 Q1054.9,612.4 1090.7,639.2 L1086.2,715.1 L1023.7,715.1 Z" fill="rgba(7,7,11,0.8)"/><rect x="1025.9" y="710.7" width="24.6" height="89.3" fill="rgba(7,7,11,0.8)"/><rect x="1059.4" y="710.7" width="24.6" height="89.3" fill="rgba(7,7,11,0.8)"/><path d="M1081.7,643.7 L1113,581.1" fill="none" stroke="rgba(7,7,11,0.8)" stroke-width="15.632419184828178" stroke-linecap="round" stroke-linejoin="round"/><circle cx="1195.2" cy="611.6" r="17.5" fill="rgba(7,7,11,0.8)"/><path d="M1162.3,651.7 Q1195.2,627 1228.2,651.7 L1224,721.7 L1166.4,721.7 Z" fill="rgba(7,7,11,0.8)"/><rect x="1168.4" y="717.6" width="22.7" height="82.4" fill="rgba(7,7,11,0.8)"/><rect x="1199.3" y="717.6" width="22.7" height="82.4" fill="rgba(7,7,11,0.8)"/><circle cx="1314.1" cy="640.4" r="14.8" fill="rgba(7,7,11,0.8)"/><path d="M1286.2,674.4 Q1314.1,653.5 1342,674.4 L1338.5,733.7 L1289.7,733.7 Z" fill="rgba(7,7,11,0.8)"/><rect x="1291.4" y="730.2" width="19.2" height="69.8" fill="rgba(7,7,11,0.8)"/><rect x="1317.6" y="730.2" width="19.2" height="69.8" fill="rgba(7,7,11,0.8)"/><path d="M1335,677.9 L1359.5,629.1" fill="none" stroke="rgba(7,7,11,0.8)" stroke-width="12.208737831329929" stroke-linecap="round" stroke-linejoin="round"/><circle cx="1435.9" cy="629.5" r="15.8" fill="rgba(7,7,11,0.8)"/><path d="M1406.1,665.8 Q1435.9,643.5 1465.7,665.8 L1462,729.2 L1409.8,729.2 Z" fill="rgba(7,7,11,0.8)"/><rect x="1411.7" y="725.5" width="20.5" height="74.5" fill="rgba(7,7,11,0.8)"/><rect x="1439.6" y="725.5" width="20.5" height="74.5" fill="rgba(7,7,11,0.8)"/><path d="M1458.2,669.5 L1484.3,617.4" fill="none" stroke="rgba(7,7,11,0.8)" stroke-width="13.04525789488107" stroke-linecap="round" stroke-linejoin="round"/><circle cx="1531.7" cy="610.7" r="17.6" fill="rgba(7,7,11,0.8)"/><path d="M1498.6,651.1 Q1531.7,626.2 1564.8,651.1 L1560.7,721.4 L1502.7,721.4 Z" fill="rgba(7,7,11,0.8)"/><rect x="1504.8" y="717.3" width="22.8" height="82.7" fill="rgba(7,7,11,0.8)"/><rect x="1535.8" y="717.3" width="22.8" height="82.7" fill="rgba(7,7,11,0.8)"/><path d="M1556.5,655.2 L1585.5,597.3" fill="none" stroke="rgba(7,7,11,0.8)" stroke-width="14.479675606684763" stroke-linecap="round" stroke-linejoin="round"/><circle cx="-20.6" cy="708.4" r="20.6" fill="rgba(7,7,11,1)"/><path d="M-59.4,755.6 Q-20.6,726.5 18.2,755.6 L13.3,837.9 L-54.5,837.9 Z" fill="rgba(7,7,11,1)"/><rect x="-52.1" y="833.1" width="26.6" height="96.9" fill="rgba(7,7,11,1)"/><rect x="-15.8" y="833.1" width="26.6" height="96.9" fill="rgba(7,7,11,1)"/><circle cx="145.7" cy="653.4" r="25.7" fill="rgba(7,7,11,1)"/><path d="M97.3,712.3 Q145.7,676 194.1,712.3 L188,815.1 L103.4,815.1 Z" fill="rgba(7,7,11,1)"/><rect x="106.4" y="809.1" width="33.3" height="120.9" fill="rgba(7,7,11,1)"/><rect x="151.7" y="809.1" width="33.3" height="120.9" fill="rgba(7,7,11,1)"/><circle cx="295.8" cy="675.4" r="23.6" fill="rgba(7,7,11,1)"/><path d="M251.3,729.7 Q295.8,696.3 340.3,729.7 L334.7,824.3 L256.8,824.3 Z" fill="rgba(7,7,11,1)"/><rect x="259.6" y="818.7" width="30.6" height="111.3" fill="rgba(7,7,11,1)"/><rect x="301.4" y="818.7" width="30.6" height="111.3" fill="rgba(7,7,11,1)"/><circle cx="429.7" cy="661" r="25" fill="rgba(7,7,11,1)"/><path d="M382.7,718.3 Q429.7,683.1 476.8,718.3 L470.9,818.3 L388.6,818.3 Z" fill="rgba(7,7,11,1)"/><rect x="391.5" y="812.4" width="32.3" height="117.6" fill="rgba(7,7,11,1)"/><rect x="435.6" y="812.4" width="32.3" height="117.6" fill="rgba(7,7,11,1)"/><path d="M465,724.2 L506.2,641.9" fill="none" stroke="rgba(7,7,11,1)" stroke-width="20.579142553023996" stroke-linecap="round" stroke-linejoin="round"/><circle cx="566.5" cy="707.7" r="20.6" fill="rgba(7,7,11,1)"/><path d="M527.7,755.1 Q566.5,726 605.4,755.1 L600.6,837.7 L532.5,837.7 Z" fill="rgba(7,7,11,1)"/><rect x="535" y="832.8" width="26.7" height="97.2" fill="rgba(7,7,11,1)"/><rect x="571.4" y="832.8" width="26.7" height="97.2" fill="rgba(7,7,11,1)"/><circle cx="696.1" cy="661.2" r="25" fill="rgba(7,7,11,1)"/><path d="M649.1,718.5 Q696.1,683.3 743.1,718.5 L737.3,818.4 L655,818.4 Z" fill="rgba(7,7,11,1)"/><rect x="657.9" y="812.5" width="32.3" height="117.5" fill="rgba(7,7,11,1)"/><rect x="702" y="812.5" width="32.3" height="117.5" fill="rgba(7,7,11,1)"/><path d="M731.4,724.4 L772.5,642.1" fill="none" stroke="rgba(7,7,11,1)" stroke-width="20.56139181910083" stroke-linecap="round" stroke-linejoin="round"/><circle cx="866.2" cy="702.5" r="21.1" fill="rgba(7,7,11,1)"/><path d="M826.4,751 Q866.2,721.1 906,751 L901,835.5 L831.4,835.5 Z" fill="rgba(7,7,11,1)"/><rect x="833.9" y="830.5" width="27.4" height="99.5" fill="rgba(7,7,11,1)"/><rect x="871.2" y="830.5" width="27.4" height="99.5" fill="rgba(7,7,11,1)"/><path d="M896.1,755.9 L930.9,686.3" fill="none" stroke="rgba(7,7,11,1)" stroke-width="17.40534015388228" stroke-linecap="round" stroke-linejoin="round"/><circle cx="1006.5" cy="668.3" r="24.3" fill="rgba(7,7,11,1)"/><path d="M960.7,724.1 Q1006.5,689.8 1052.2,724.1 L1046.5,821.3 L966.4,821.3 Z" fill="rgba(7,7,11,1)"/><rect x="969.3" y="815.6" width="31.5" height="114.4" fill="rgba(7,7,11,1)"/><rect x="1012.2" y="815.6" width="31.5" height="114.4" fill="rgba(7,7,11,1)"/><circle cx="1155.7" cy="668.3" r="24.3" fill="rgba(7,7,11,1)"/><path d="M1109.9,724 Q1155.7,689.7 1201.5,724 L1195.7,821.3 L1115.6,821.3 Z" fill="rgba(7,7,11,1)"/><rect x="1118.5" y="815.6" width="31.5" height="114.4" fill="rgba(7,7,11,1)"/><rect x="1161.4" y="815.6" width="31.5" height="114.4" fill="rgba(7,7,11,1)"/><circle cx="1324.9" cy="671.7" r="24" fill="rgba(7,7,11,1)"/><path d="M1279.7,726.7 Q1324.9,692.8 1370.1,726.7 L1364.4,822.7 L1285.4,822.7 Z" fill="rgba(7,7,11,1)"/><rect x="1288.2" y="817.1" width="31.1" height="112.9" fill="rgba(7,7,11,1)"/><rect x="1330.6" y="817.1" width="31.1" height="112.9" fill="rgba(7,7,11,1)"/><circle cx="1507.6" cy="657.8" r="25.3" fill="rgba(7,7,11,1)"/><path d="M1460,715.8 Q1507.6,680.1 1555.2,715.8 L1549.2,817 L1465.9,817 Z" fill="rgba(7,7,11,1)"/><rect x="1468.9" y="811" width="32.7" height="119" fill="rgba(7,7,11,1)"/><rect x="1513.5" y="811" width="32.7" height="119" fill="rgba(7,7,11,1)"/>
<rect width="1600" height="1000" filter="url(#grain)" opacity="0.5"/>
<rect width="1600" height="1000" fill="url(#vig)"/>
</svg>