<svg xmlns="http://www.w3.org/2000/svg" width="1600" height="1000" viewBox="0 0 1600 1000">
<defs>
  <linearGradient id="bg" x1="0" y1="0" x2="0" y2="1"><stop offset="0" stop-color="#170f10"/><stop offset="0.62" stop-color="#4a1f22"/><stop offset="1" stop-color="#e87a60"/></linearGradient>
  <radialGradient id="vig" cx="0.5" cy="0.5" r="0.75"><stop offset="0.5" stop-color="#000" stop-opacity="0"/><stop offset="1" stop-color="#000" stop-opacity="0.55"/></radialGradient>
  <filter id="blurS" x="-50%" y="-50%" width="200%" height="200%"><feGaussianBlur stdDeviation="6"/></filter>
  <filter id="blurM" x="-80%" y="-80%" width="260%" height="260%"><feGaussianBlur stdDeviation="22"/></filter>
  <filter id="blurL" x="-100%" y="-100%" width="300%" height="300%"><feGaussianBlur stdDeviation="70"/></filter>
  <filter id="grain"><feTurbulence type="fractalNoise" baseFrequency="0.85" numOctaves="1" stitchTiles="stitch"/><feColorMatrix type="saturate" values="0"/><feComponentTransfer><feFuncA type="linear" slope="0.07"/></feComponentTransfer></filter>
  <linearGradient id="mini" x1="0" y1="0" x2="0" y2="1"><stop offset="0" stop-color="#1a0d2a"/><stop offset="0.7" stop-color="#7a2b3c"/><stop offset="1" stop-color="#f4a24e"/></linearGradient>
</defs>
<rect width="1600" height="1000" fill="url(#bg)"/>
<circle cx="800" cy="500" r="600" fill="#ff7b5c" opacity="0.35" filter="url(#blurL)"/><rect x="200" y="110" width="1200" height="800" fill="#0f0d0e" rx="16" stroke="rgba(255,255,255,0.12)" stroke-width="1.5"/><rect x="200" y="110" width="1200" height="56" fill="#17141a" rx="16"/><rect x="200" y="150" width="1200" height="16" fill="#17141a"/><circle cx="232" cy="138" r="6" fill="#fff" opacity="0.35"/><circle cx="254" cy="138" r="6" fill="#fff" opacity="0.35"/><circle cx="276" cy="138" r="6" fill="#fff" opacity="0.35"/><rect x="320" y="126" width="520" height="24" fill="#0f0d0e" rx="12"/><text x="340" y="143" font-family="ui-sans-serif, system-ui, -apple-system, 'Segoe UI', Roboto, sans-serif" font-size="12" font-weight="500" fill="#fff" opacity="0.6">los-santos-legacy.servcraft.gg</text><rect x="200" y="166" width="1200" height="380" fill="url(#mini)"/><circle cx="1000" cy="480" r="200" fill="#ff9a4a" opacity="0.6" filter="url(#blurL)"/><circle cx="1000" cy="480" r="60" fill="#ffd38a"/><polygon points="150,500 277.9,458.4 398.1,443.6 602.8,476.3 725.8,457.7 899.8,445.9 1102.5,476.9 1283.3,441.1 1447.4,459 1539.7,464.5 1500,500 1500,700 150,700" fill="#1a0f1a" opacity="1"/><rect x="200" y="489.6" width="68.7" height="330.4" fill="#120b16" opacity="1"/><rect x="295.7" y="438" width="156.3" height="382" fill="#120b16" opacity="1"/><rect x="351.7" y="468" width="7" height="10" fill="#ffe1a8" opacity="0.3788184568984434"/><rect x="399.7" y="448" width="7" height="10" fill="#ffe1a8" opacity="0.3785527208005078"/><rect x="399.7" y="488" width="7" height="10" fill="#ffe1a8" opacity="0.4981926718959585"/><rect x="415.7" y="448" width="7" height="10" fill="#ffe1a8" opacity="0.3547388275619596"/><rect x="431.7" y="448" width="7" height="10" fill="#ffe1a8" opacity="0.8290691049769521"/><rect x="431.7" y="468" width="7" height="10" fill="#ffe1a8" opacity="0.48155374259222294"/><rect x="431.7" y="488" width="7" height="10" fill="#ffe1a8" opacity="0.5243667355272918"/><rect x="481.9" y="465.6" width="58.9" height="354.4" fill="#120b16" opacity="1"/><rect x="505.9" y="495.6" width="7" height="10" fill="#ffe1a8" opacity="0.5476924966904335"/><rect x="565.7" y="408.6" width="85.7" height="411.4" fill="#120b16" opacity="1"/><rect x="589.7" y="438.6" width="7" height="10" fill="#ffe1a8" opacity="0.8039399166591465"/><rect x="589.7" y="458.6" width="7" height="10" fill="#ffe1a8" opacity="0.701696796552278"/><rect x="589.7" y="478.6" width="7" height="10" fill="#ffe1a8" opacity="0.7633844876196235"/><rect x="605.7" y="458.6" width="7" height="10" fill="#ffe1a8" opacity="0.9979752099141479"/><rect x="605.7" y="478.6" width="7" height="10" fill="#ffe1a8" opacity="0.7546361453132704"/><rect x="621.7" y="478.6" width="7" height="10" fill="#ffe1a8" opacity="0.9724506086786278"/><rect x="672.4" y="478.2" width="156.5" height="341.8" fill="#120b16" opacity="1"/><rect x="696.4" y="488.2" width="7" height="10" fill="#ffe1a8" opacity="0.44870246581267564"/><rect x="744.4" y="488.2" width="7" height="10" fill="#ffe1a8" opacity="0.35377564069349315"/><rect x="842.5" y="438.7" width="117.5" height="381.3" fill="#120b16" opacity="1"/><rect x="899.3" y="398.9" width="4" height="60" fill="#120b16" opacity="1"/><rect x="930.5" y="488.7" width="7" height="10" fill="#ffe1a8" opacity="0.37667871385347096"/><rect x="975" y="469.4" width="98.5" height="350.6" fill="#120b16" opacity="1"/><rect x="999" y="479.4" width="7" height="10" fill="#ffe1a8" opacity="0.7460294515709393"/><rect x="1086.7" y="474.7" width="104.2" height="345.3" fill="#120b16" opacity="1"/><rect x="1094.7" y="484.7" width="7" height="10" fill="#ffe1a8" opacity="0.8110807790188119"/><rect x="1221.3" y="450.3" width="154.3" height="369.7" fill="#120b16" opacity="1"/><rect x="1309.3" y="460.3" width="7" height="10" fill="#ffe1a8" opacity="0.7764909298392013"/><rect x="1385.6" y="454.1" width="148.2" height="365.9" fill="#120b16" opacity="1"/><rect x="1393.6" y="484.1" width="7" height="10" fill="#ffe1a8" opacity="0.5909009325085208"/><rect x="1409.6" y="464.1" width="7" height="10" fill="#ffe1a8" opacity="0.4926378415897489"/><rect x="1425.6" y="464.1" width="7" height="10" fill="#ffe1a8" opacity="0.4022938926354982"/><rect x="1505.6" y="464.1" width="7" height="10" fill="#ffe1a8" opacity="0.510087636555545"/><rect x="200" y="520" width="1200" height="26" fill="#0f0d0e"/><rect x="0" y="166" width="200" height="400" fill="#0f0d0e"/><rect x="1400" y="166" width="200" height="400" fill="#0f0d0e"/><path d="M272.2,530 Q293,387 311.2,270 L317.2,270 Q303.4,387 289.1,530 Z" fill="#07070b"/><path d="M311.2,270 Q249.3,242.4 198.7,301.3 Q259.3,268.4 311.2,278 Z" fill="#07070b"/><path d="M311.2,270 Q268.2,226.2 233,262.3 Q278.2,252.2 311.2,278 Z" fill="#07070b"/><path d="M311.2,270 Q285.9,201.2 265.2,232.3 Q295.9,227.2 311.2,278 Z" fill="#07070b"/><path d="M311.2,270 Q318.1,197.7 323.7,225.8 Q328.1,223.7 311.2,278 Z" fill="#07070b"/><path d="M311.2,270 Q340.5,204.2 364.5,236 Q350.5,230.2 311.2,278 Z" fill="#07070b"/><path d="M311.2,270 Q350.7,220.3 383,254.1 Q360.7,246.3 311.2,278 Z" fill="#07070b"/><path d="M311.2,270 Q367.5,247.7 413.6,302.9 Q377.5,273.7 311.2,278 Z" fill="#07070b"/><path d="M1313.1,530 Q1308.5,403.5 1292.4,300 L1286.4,300 Q1299.3,403.5 1328.1,530 Z" fill="#07070b"/><path d="M1292.4,300 Q1239.8,277.1 1196.8,327.4 Q1229.8,303.1 1292.4,308 Z" fill="#07070b"/><path d="M1292.4,300 Q1253.8,258.5 1222.3,290.9 Q1243.8,284.5 1292.4,308 Z" fill="#07070b"/><path d="M1292.4,300 Q1269.4,242 1250.7,268.8 Q1259.4,268 1292.4,308 Z" fill="#07070b"/><path d="M1292.4,300 Q1293.6,240.1 1294.5,263.2 Q1283.6,266.1 1292.4,308 Z" fill="#07070b"/><path d="M1292.4,300 Q1318.8,250.7 1340.5,276.6 Q1308.8,276.7 1292.4,308 Z" fill="#07070b"/><path d="M1292.4,300 Q1334.3,253.6 1368.6,289 Q1324.3,279.6 1292.4,308 Z" fill="#07070b"/><path d="M1292.4,300 Q1333.9,279.7 1367.9,318.3 Q1323.9,305.7 1292.4,308 Z" fill="#07070b"/><rect x="260" y="240" width="150" height="24" fill="#fff" rx="3"/><text x="335" y="257" font-family="ui-sans-serif, system-ui, -apple-system, 'Segoe UI', Roboto, sans-serif" font-size="11" font-weight="700" fill="#111" text-anchor="middle" letter-spacing="2">SERVEUR RP</text><text x="260" y="330" font-family="ui-sans-serif, system-ui, -apple-system, 'Segoe UI', Roboto, sans-serif" font-size="52" font-weight="800" fill="#fff">Los Santos Legacy</text><text x="260" y="380" font-family="ui-sans-serif, system-ui, -apple-system, 'Segoe UI', Roboto, sans-serif" font-size="20" font-weight="500" fill="#fff" opacity="0.8">Une ville qui vit, même quand tu dors.</text><rect x="260" y="420" width="170" height="46" fill="#fff" rx="23"/><text x="345" y="450" font-family="ui-sans-serif, system-ui, -apple-system, 'Segoe UI', Roboto, sans-serif" font-size="16" font-weight="700" fill="#111" text-anchor="middle">Rejoindre</text><rect x="446" y="420" width="150" height="46" fill="#0f0d0e" rx="23" opacity="0.9" stroke="rgba(255,255,255,0.35)" stroke-width="1.5"/><text x="521" y="450" font-family="ui-sans-serif, system-ui, -apple-system, 'Segoe UI', Roboto, sans-serif" font-size="16" font-weight="700" fill="#fff" text-anchor="middle">Discord</text><rect x="260" y="600" width="340" height="150" fill="#1b1618" rx="12"/><text x="280" y="640" font-family="ui-sans-serif, system-ui, -apple-system, 'Segoe UI', Roboto, sans-serif" font-size="11" font-weight="700" fill="#fff" opacity="0.6" letter-spacing="2">JOBS</text><rect x="280" y="664" width="220" height="12" fill="#fff" rx="6" opacity="0.8"/><rect x="280" y="690" width="260" height="9" fill="#fff" rx="4.5" opacity="0.35"/><rect x="280" y="710" width="200" height="9" fill="#fff" rx="4.5" opacity="0.35"/><rect x="640" y="600" width="340" height="150" fill="#1b1618" rx="12"/><text x="660" y="640" font-family="ui-sans-serif, system-ui, -apple-system, 'Segoe UI', Roboto, sans-serif" font-size="11" font-weight="700" fill="#fff" opacity="0.6" letter-spacing="2">RÈGLEMENT</text><rect x="660" y="664" width="250" height="12" fill="#fff" rx="6" opacity="0.8"/><rect x="660" y="690" width="260" height="9" fill="#fff" rx="4.5" opacity="0.35"/><rect x="660" y="710" width="200" height="9" fill="#fff" rx="4.5" opacity="0.35"/><rect x="1020" y="600" width="340" height="150" fill="#1b1618" rx="12"/><text x="1040" y="640" font-family="ui-sans-serif, system-ui, -apple-system, 'Segoe UI', Roboto, sans-serif" font-size="11" font-weight="700" fill="#fff" opacity="0.6" letter-spacing="2">WHITELIST</text><rect x="1040" y="664" width="280" height="12" fill="#fff" rx="6" opacity="0.8"/><rect x="1040" y="690" width="260" height="9" fill="#fff" rx="4.5" opacity="0.35"/><rect x="1040" y="710" width="200" height="9" fill="#fff" rx="4.5" opacity="0.35"/><rect x="260" y="790" width="1080" height="1" fill="#fff" opacity="0.1"/><rect x="260" y="820" width="160" height="8" fill="#fff" rx="4" opacity="0.3"/><rect x="1180" y="820" width="160" height="8" fill="#fff" rx="4" opacity="0.3"/>
<rect width="1600" height="1000" filter="url(#grain)" opacity="0.35"/>
<rect width="1600" height="1000" fill="url(#vig)"/>
</svg>