<svg xmlns="http://www.w3.org/2000/svg" width="1600" height="1000" viewBox="0 0 1600 1000">
<defs>
  <linearGradient id="g" x1="0" y1="0" x2="0" y2="1">
    <stop offset="0" stop-color="#0d0d0d"/><stop offset="0.6" stop-color="#2a1f3d"/><stop offset="1" stop-color="#c9a6ff"/>
  </linearGradient>
  <radialGradient id="glow" cx="0.5" cy="0.62" r="0.6">
    <stop offset="0" stop-color="#c9a6ff" stop-opacity="0.9"/><stop offset="1" stop-color="#c9a6ff" stop-opacity="0"/>
  </radialGradient>
  <filter id="noise"><feTurbulence type="fractalNoise" baseFrequency="0.9" numOctaves="2" stitchTiles="stitch"/><feColorMatrix type="saturate" values="0"/><feComponentTransfer><feFuncA type="linear" slope="0.08"/></feComponentTransfer></filter>
</defs>
<rect width="1600" height="1000" fill="url(#g)"/>
<rect width="1600" height="1000" fill="url(#glow)"/>
<line x1="0" y1="0" x2="0" y2="1000" stroke="#fff" stroke-opacity="0.06"/><line x1="80" y1="0" x2="80" y2="1000" stroke="#fff" stroke-opacity="0.06"/><line x1="160" y1="0" x2="160" y2="1000" stroke="#fff" stroke-opacity="0.06"/><line x1="240" y1="0" x2="240" y2="1000" stroke="#fff" stroke-opacity="0.06"/><line x1="320" y1="0" x2="320" y2="1000" stroke="#fff" stroke-opacity="0.06"/><line x1="400" y1="0" x2="400" y2="1000" stroke="#fff" stroke-opacity="0.06"/><line x1="480" y1="0" x2="480" y2="1000" stroke="#fff" stroke-opacity="0.06"/><line x1="560" y1="0" x2="560" y2="1000" stroke="#fff" stroke-opacity="0.06"/><line x1="640" y1="0" x2="640" y2="1000" stroke="#fff" stroke-opacity="0.06"/><line x1="720" y1="0" x2="720" y2="1000" stroke="#fff" stroke-opacity="0.06"/><line x1="800" y1="0" x2="800" y2="1000" stroke="#fff" stroke-opacity="0.06"/><line x1="880" y1="0" x2="880" y2="1000" stroke="#fff" stroke-opacity="0.06"/><line x1="960" y1="0" x2="960" y2="1000" stroke="#fff" stroke-opacity="0.06"/><line x1="1040" y1="0" x2="1040" y2="1000" stroke="#fff" stroke-opacity="0.06"/><line x1="1120" y1="0" x2="1120" y2="1000" stroke="#fff" stroke-opacity="0.06"/><line x1="1200" y1="0" x2="1200" y2="1000" stroke="#fff" stroke-opacity="0.06"/><line x1="1280" y1="0" x2="1280" y2="1000" stroke="#fff" stroke-opacity="0.06"/><line x1="1360" y1="0" x2="1360" y2="1000" stroke="#fff" stroke-opacity="0.06"/><line x1="1440" y1="0" x2="1440" y2="1000" stroke="#fff" stroke-opacity="0.06"/><line x1="1520" y1="0" x2="1520" y2="1000" stroke="#fff" stroke-opacity="0.06"/><line x1="1600" y1="0" x2="1600" y2="1000" stroke="#fff" stroke-opacity="0.06"/><line x1="0" y1="0" x2="1600" y2="0" stroke="#fff" stroke-opacity="0.06"/><line x1="0" y1="80" x2="1600" y2="80" stroke="#fff" stroke-opacity="0.06"/><line x1="0" y1="160" x2="1600" y2="160" stroke="#fff" stroke-opacity="0.06"/><line x1="0" y1="240" x2="1600" y2="240" stroke="#fff" stroke-opacity="0.06"/><line x1="0" y1="320" x2="1600" y2="320" stroke="#fff" stroke-opacity="0.06"/><line x1="0" y1="400" x2="1600" y2="400" stroke="#fff" stroke-opacity="0.06"/><line x1="0" y1="480" x2="1600" y2="480" stroke="#fff" stroke-opacity="0.06"/><line x1="0" y1="560" x2="1600" y2="560" stroke="#fff" stroke-opacity="0.06"/><line x1="0" y1="640" x2="1600" y2="640" stroke="#fff" stroke-opacity="0.06"/><line x1="0" y1="720" x2="1600" y2="720" stroke="#fff" stroke-opacity="0.06"/><line x1="0" y1="800" x2="1600" y2="800" stroke="#fff" stroke-opacity="0.06"/><line x1="0" y1="880" x2="1600" y2="880" stroke="#fff" stroke-opacity="0.06"/><line x1="0" y1="960" x2="1600" y2="960" stroke="#fff" stroke-opacity="0.06"/><rect x="1042.710703983903" y="507.6609766110778" width="265.24527504108846" height="205.27250040609587" rx="8" fill="#fff" opacity="0.04415651049464941"/><rect x="790.3065502643585" y="367.67971119843423" width="182.42049637716264" height="106.60842211300903" rx="8" fill="#fff" opacity="0.10237009035423399"/><rect x="1048.1525968760252" y="861.889888998121" width="69.71387764438987" height="48.94831241931752" rx="8" fill="#fff" opacity="0.0362438128888607"/><rect x="949.4802869856358" y="282.7522011939436" width="174.21923889312893" height="105.62149253767082" rx="8" fill="#fff" opacity="0.10086337378248572"/><rect x="840.6610030680895" y="521.1504176259041" width="159.35950716026127" height="76.64874188979104" rx="8" fill="#fff" opacity="0.08869737301021814"/><rect x="1403.0199363827705" y="335.82267980091274" width="235.16199575271457" height="162.09672915686167" rx="8" fill="#fff" opacity="0.0764734354056418"/><rect x="1271.9556357711554" y="457.7129618264735" width="208.3735377714038" height="196.3527413806225" rx="8" fill="#fff" opacity="0.09335859529674054"/><rect x="425.0189833343029" y="438.0895544309169" width="237.98479836899787" height="131.12825712698114" rx="8" fill="#fff" opacity="0.09094405202195048"/><rect x="1399.6251199394464" y="612.7974772825837" width="161.96250612847507" height="157.77821438704513" rx="8" fill="#fff" opacity="0.08826297979801893"/><rect x="692.4109548330307" y="826.4388793613762" width="184.66777205001563" height="119.48783789617775" rx="8" fill="#fff" opacity="0.08695270480588078"/><rect x="649.288247153163" y="60.81335945054889" width="114.5942279882729" height="86.62457746326038" rx="8" fill="#fff" opacity="0.0923820960521698"/><rect x="1172.216124087572" y="638.5347640607506" width="107.62085834983736" height="63.338073226762454" rx="8" fill="#fff" opacity="0.10567664986476302"/><rect x="509.78745706379414" y="465.4236678034067" width="99.87935186363757" height="73.91382293583776" rx="8" fill="#fff" opacity="0.049580644853413104"/><rect x="1230.785284936428" y="783.8234778027982" width="92.34017950948328" height="37.51546998013215" rx="8" fill="#fff" opacity="0.05386216262355446"/>
<rect width="1600" height="1000" filter="url(#noise)" opacity="0.6"/>
<rect width="1600" height="1000" fill="url(#g)" opacity="0.15"/>
<g font-family="ui-sans-serif, system-ui, sans-serif" font-weight="700" fill="#fff" opacity="0.6">
  <text x="800" y="500" text-anchor="middle" font-size="33" letter-spacing="5">IMAGE À REMPLACER</text>
  <text x="800" y="550" text-anchor="middle" font-size="23" font-weight="500" opacity="0.8">/images/feature-ia.svg</text>
</g>
</svg>