<svg xmlns="http://www.w3.org/2000/svg" width="1920" height="1080" viewBox="0 0 1920 1080">
<defs>
  <linearGradient id="g" x1="0" y1="0" x2="0" y2="1">
    <stop offset="0" stop-color="#2a1a3d"/><stop offset="0.6" stop-color="#8a3b2a"/><stop offset="1" stop-color="#f2a65a"/>
  </linearGradient>
  <radialGradient id="glow" cx="0.5" cy="0.62" r="0.6">
    <stop offset="0" stop-color="#f2a65a" stop-opacity="0.9"/><stop offset="1" stop-color="#f2a65a" stop-opacity="0"/>
  </radialGradient>
  <filter id="noise"><feTurbulence type="fractalNoise" baseFrequency="0.9" numOctaves="2" stitchTiles="stitch"/><feColorMatrix type="saturate" values="0"/><feComponentTransfer><feFuncA type="linear" slope="0.08"/></feComponentTransfer></filter>
</defs>
<rect width="1920" height="1080" fill="url(#g)"/>
<rect width="1920" height="1080" fill="url(#glow)"/>
<rect x="0" y="411.22197466297075" width="73.97189097478986" height="668.7780253370292" fill="#000" opacity="0.7108510364079849"/><rect x="46.53613270802989" y="637.8662145136902" width="6" height="9" fill="#fff" opacity="0.4856777394656092"/><rect x="16.41612680836124" y="781.9296366193846" width="6" height="9" fill="#fff" opacity="0.4050307575147599"/><rect x="19.899182906895035" y="467.3913029514633" width="6" height="9" fill="#fff" opacity="0.594151395233348"/><rect x="24.804390638896205" y="789.3768629149563" width="6" height="9" fill="#fff" opacity="0.3799750631209463"/><rect x="13.925877356002463" y="932.5830296083004" width="6" height="9" fill="#fff" opacity="0.38311568528879436"/><rect x="80.13546364754438" y="726.3501549130306" width="148.67133329156786" height="353.64984508696944" fill="#000" opacity="0.778380345494952"/><rect x="168.92818213270897" y="847.9187857267477" width="6" height="9" fill="#fff" opacity="0.4796155092539266"/><rect x="110.17777348898383" y="787.7201558334282" width="6" height="9" fill="#fff" opacity="0.2750977965537459"/><rect x="175.34278091652686" y="808.007584148346" width="6" height="9" fill="#fff" opacity="0.20415570246987044"/><rect x="240.35430284030735" y="737.4480758956634" width="88.87082371860743" height="342.55192410433665" fill="#000" opacity="0.8454106625868008"/><rect x="273.00866548855913" y="919.3598589901802" width="6" height="9" fill="#fff" opacity="0.35388144976459446"/><rect x="289.96802341391447" y="1009.8030228442778" width="6" height="9" fill="#fff" opacity="0.18965665807481855"/><rect x="279.59085575560016" y="801.9729665665501" width="6" height="9" fill="#fff" opacity="0.3234897055430338"/><rect x="338.03124674782157" y="329.87330595217645" width="53.50159670691937" height="750.1266940478235" fill="#000" opacity="0.7128572960966267"/><rect x="364.0092078628279" y="524.4488611774099" width="6" height="9" fill="#fff" opacity="0.4662533073918894"/><rect x="366.4817017794635" y="1046.5507895729306" width="6" height="9" fill="#fff" opacity="0.4228434909367934"/><rect x="398.1129099437967" y="406.78588394634426" width="179.25838488619775" height="673.2141160536557" fill="#000" opacity="0.8447297040023841"/><rect x="424.516130788127" y="843.7734358387122" width="6" height="9" fill="#fff" opacity="0.4613921022741124"/><rect x="425.7141938340629" y="732.2861319145351" width="6" height="9" fill="#fff" opacity="0.19464121942874044"/><rect x="508.9868627563317" y="808.0575372112218" width="6" height="9" fill="#fff" opacity="0.2295310930116102"/><rect x="432.2771531810268" y="894.8648184096028" width="6" height="9" fill="#fff" opacity="0.21730982044246047"/><rect x="544.1866906954878" y="780.0248801189744" width="6" height="9" fill="#fff" opacity="0.4365294443909079"/><rect x="585.0296453246847" y="358.64162286696956" width="114.04973609372973" height="721.3583771330304" fill="#000" opacity="0.7109037804650143"/><rect x="670.053367831778" y="1005.2908313887442" width="6" height="9" fill="#fff" opacity="0.2220135171432048"/><rect x="683.9939588882614" y="616.7237769284708" width="6" height="9" fill="#fff" opacity="0.23116217760834842"/><rect x="635.789425062749" y="868.3835607725464" width="6" height="9" fill="#fff" opacity="0.202955501829274"/><rect x="723.7373290760443" y="555.8307754285634" width="75.32323045190424" height="524.1692245714366" fill="#000" opacity="0.8144867939990945"/><rect x="741.9066509841651" y="755.2448906043386" width="6" height="9" fill="#fff" opacity="0.22677889859769493"/><rect x="733.5311718964829" y="604.5490782648659" width="6" height="9" fill="#fff" opacity="0.6176801665918902"/><rect x="737.8557440657057" y="887.5539206967735" width="6" height="9" fill="#fff" opacity="0.4612047715112567"/><rect x="814.6739099668339" y="807.3381688208319" width="88.02451613359153" height="272.6618311791681" fill="#000" opacity="0.8548259029630572"/><rect x="848.1986974205348" y="987.7766343454005" width="6" height="9" fill="#fff" opacity="0.3519281147513539"/><rect x="854.5331275877536" y="1049.7521865049519" width="6" height="9" fill="#fff" opacity="0.23573998580686747"/><rect x="829.0665707511116" y="909.8569916070203" width="6" height="9" fill="#fff" opacity="0.17783541951794177"/><rect x="923.4867096384987" y="786.7956764800474" width="126.64299643132836" height="293.2043235199526" fill="#000" opacity="0.8476700192666613"/><rect x="989.5480198299803" y="945.1950170352409" width="6" height="9" fill="#fff" opacity="0.2044512114720419"/><rect x="937.7444001472021" y="980.2788894456996" width="6" height="9" fill="#fff" opacity="0.29915268833283337"/><rect x="1020.4714134349338" y="1010.6258981846955" width="6" height="9" fill="#fff" opacity="0.24323472098913043"/><rect x="1014.833822258403" y="827.3255937616085" width="6" height="9" fill="#fff" opacity="0.4176817624596879"/><rect x="1060.2773940060288" y="535.1793930251151" width="144.8835590435192" height="544.8206069748849" fill="#000" opacity="0.7873330591828562"/><rect x="1068.3170931779898" y="740.2218766485369" width="6" height="9" fill="#fff" opacity="0.34836917601060124"/><rect x="1072.9796220180601" y="769.2467341460864" width="6" height="9" fill="#fff" opacity="0.6307061305036769"/><rect x="1192.8248498994953" y="778.919712731718" width="6" height="9" fill="#fff" opacity="0.5337763557676226"/><rect x="1216.7759230174124" y="335.271484163124" width="58.249833257868886" height="744.728515836876" fill="#000" opacity="0.8939163451083005"/><rect x="1257.7445915607498" y="938.1000108301372" width="6" height="9" fill="#fff" opacity="0.5752824892755598"/><rect x="1262.5506537764097" y="430.46561093661643" width="6" height="9" fill="#fff" opacity="0.4144889104412869"/><rect x="1259.6342963215634" y="672.3699320473518" width="6" height="9" fill="#fff" opacity="0.3451327450806275"/><rect x="1299.0473289918154" y="508.9815428936854" width="61.33143909741193" height="571.0184571063146" fill="#000" opacity="0.8885089981253259"/><rect x="1317.3243532235895" y="979.0274387642538" width="6" height="9" fill="#fff" opacity="0.30848439058754595"/><rect x="1309.0593011917897" y="853.72623588531" width="6" height="9" fill="#fff" opacity="0.27026024830993267"/><rect x="1347.150949746321" y="947.4861506839418" width="6" height="9" fill="#fff" opacity="0.5400593270082027"/><rect x="1371.1516606882215" y="631.1971067930572" width="66.42290050163865" height="448.8028932069429" fill="#000" opacity="0.8816677211085335"/><rect x="1379.6873566448628" y="1056.7679629631953" width="6" height="9" fill="#fff" opacity="0.46372706254478546"/><rect x="1411.2180069315395" y="694.2374162902723" width="6" height="9" fill="#fff" opacity="0.20744568340014666"/><rect x="1446.5746406624094" y="793.745514802169" width="124.03783159330487" height="286.25448519783095" fill="#000" opacity="0.554107065894641"/><rect x="1542.7063560240138" y="975.3594477863832" width="6" height="9" fill="#fff" opacity="0.26517050513066354"/><rect x="1506.6846462831277" y="834.1248478851915" width="6" height="9" fill="#fff" opacity="0.4819148374721408"/><rect x="1549.9624105409187" y="1044.9103272393095" width="6" height="9" fill="#fff" opacity="0.3897061153315008"/><rect x="1587.639359693043" y="528.1276701092719" width="141.7308530351147" height="551.8723298907281" fill="#000" opacity="0.7132183942128905"/><rect x="1661.6619496955686" y="974.5145745884083" width="6" height="9" fill="#fff" opacity="0.2538301892112941"/><rect x="1673.6497154802405" y="700.7578133758872" width="6" height="9" fill="#fff" opacity="0.19574714903719723"/><rect x="1664.2912480436185" y="732.180318066242" width="6" height="9" fill="#fff" opacity="0.6326101306825876"/><rect x="1745.2025495516136" y="777.2988818460144" width="146.20695776306093" height="302.7011181539856" fill="#000" opacity="0.8592561814468354"/><rect x="1797.616060770352" y="928.1921092960109" width="6" height="9" fill="#fff" opacity="0.19949684347957372"/><rect x="1754.9528684366574" y="1046.0994932835786" width="6" height="9" fill="#fff" opacity="0.3205266011413187"/><rect x="1903.2095327731222" y="508.4060621210374" width="124.68307404778898" height="571.5939378789626" fill="#000" opacity="0.8857241877820343"/><rect x="1968.9677058205239" y="829.3552861604477" width="6" height="9" fill="#fff" opacity="0.3610736602917314"/><rect x="1955.6796256092966" y="1037.951249303861" width="6" height="9" fill="#fff" opacity="0.38872055066749456"/><rect x="1944.1166398315297" y="736.4645714628248" width="6" height="9" fill="#fff" opacity="0.5409584897337482"/><rect x="1943.0552220080604" y="631.6364938841332" width="6" height="9" fill="#fff" opacity="0.18340133128222078"/>
<rect width="1920" height="1080" filter="url(#noise)" opacity="0.6"/>
<rect width="1920" height="1080" fill="url(#g)" opacity="0.15"/>
<g font-family="ui-sans-serif, system-ui, sans-serif" font-weight="700" fill="#fff" opacity="0.6">
  <text x="960" y="540" text-anchor="middle" font-size="40" letter-spacing="6">IMAGE À REMPLACER</text>
  <text x="960" y="600" text-anchor="middle" font-size="27" font-weight="500" opacity="0.8">/images/hero-accueil.svg</text>
</g>
</svg>