<svg xmlns="http://www.w3.org/2000/svg" width="1600" height="1000" viewBox="0 0 1600 1000">
<defs>
  <linearGradient id="bg" x1="0" y1="0" x2="0" y2="1"><stop offset="0" stop-color="#0b0b0b"/><stop offset="0.7" stop-color="#222222"/><stop offset="1" stop-color="#7a7a7a"/></linearGradient>
  <radialGradient id="vig" cx="0.5" cy="0.5" r="0.75"><stop offset="0.5" stop-color="#000" stop-opacity="0"/><stop offset="1" stop-color="#000" stop-opacity="0.55"/></radialGradient>
  <filter id="blurS" x="-50%" y="-50%" width="200%" height="200%"><feGaussianBlur stdDeviation="6"/></filter>
  <filter id="blurM" x="-80%" y="-80%" width="260%" height="260%"><feGaussianBlur stdDeviation="22"/></filter>
  <filter id="blurL" x="-100%" y="-100%" width="300%" height="300%"><feGaussianBlur stdDeviation="70"/></filter>
  <filter id="grain"><feTurbulence type="fractalNoise" baseFrequency="0.85" numOctaves="1" stitchTiles="stitch"/><feColorMatrix type="saturate" values="0"/><feComponentTransfer><feFuncA type="linear" slope="0.07"/></feComponentTransfer></filter>
  
</defs>
<rect width="1600" height="1000" fill="url(#bg)"/>
<circle cx="800" cy="500" r="520" fill="#8a8a8a" opacity="0.35" filter="url(#blurL)"/><polygon points="1310,420 1257.7,467.6 1279.2,535 1210.1,550.1 1195,619.2 1127.6,597.7 1080,650 1032.4,597.7 965,619.2 949.9,550.1 880.8,535 902.3,467.6 850,420 902.3,372.4 880.8,305 949.9,289.9 965,220.8 1032.4,242.3 1080,190 1127.6,242.3 1195,220.8 1210.1,289.9 1279.2,305 1257.7,372.4" fill="#2a2a2a"/><circle cx="1080" cy="420" r="96.6" fill="#1c1c1c"/><polygon points="1420,640 1388.9,672.1 1395.2,716.4 1351.1,724.1 1330.2,763.6 1290,744 1249.8,763.6 1228.9,724.1 1184.8,716.4 1191.1,672.1 1160,640 1191.1,607.9 1184.8,563.6 1228.9,555.9 1249.8,516.4 1290,536 1330.2,516.4 1351.1,555.9 1395.2,563.6 1388.9,607.9" fill="#232323"/><circle cx="1290" cy="640" r="54.6" fill="#1c1c1c"/><g transform="rotate(-40 700 540)"><rect x="560" y="505" width="420" height="70" fill="#07070b" rx="20"/><circle cx="530" cy="540" r="90" fill="#07070b"/><path d="M470,540 l70,-50 v100 Z" fill="#1c1c1c"/><circle cx="530" cy="540" r="90" fill="none" stroke="#5a5a5a" stroke-width="8"/><rect x="840" y="520" width="150" height="40" fill="#5a5a5a" rx="20" opacity="0.6"/></g><circle cx="1000" cy="760" r="120" fill="#fff" opacity="0.35" filter="url(#blurM)"/><circle cx="1000" cy="760" r="92" fill="#fff"/><path d="M948,762 l25,25 l45,-50" fill="none" stroke="#111" stroke-width="12" stroke-linecap="round" stroke-linejoin="round"/>
<rect width="1600" height="1000" filter="url(#grain)" opacity="0.5"/>
<rect width="1600" height="1000" fill="url(#vig)"/>
</svg>