<svg xmlns="http://www.w3.org/2000/svg" width="1600" height="1000" viewBox="0 0 1600 1000">
<defs>
  <linearGradient id="bg" x1="0" y1="0" x2="0" y2="1"><stop offset="0" stop-color="#06101c"/><stop offset="0.7" stop-color="#0f2a48"/><stop offset="1" stop-color="#2f78b8"/></linearGradient>
  <radialGradient id="vig" cx="0.5" cy="0.5" r="0.75"><stop offset="0.5" stop-color="#000" stop-opacity="0"/><stop offset="1" stop-color="#000" stop-opacity="0.55"/></radialGradient>
  <filter id="blurS" x="-50%" y="-50%" width="200%" height="200%"><feGaussianBlur stdDeviation="6"/></filter>
  <filter id="blurM" x="-80%" y="-80%" width="260%" height="260%"><feGaussianBlur stdDeviation="22"/></filter>
  <filter id="blurL" x="-100%" y="-100%" width="300%" height="300%"><feGaussianBlur stdDeviation="70"/></filter>
  <filter id="grain"><feTurbulence type="fractalNoise" baseFrequency="0.85" numOctaves="1" stitchTiles="stitch"/><feColorMatrix type="saturate" values="0"/><feComponentTransfer><feFuncA type="linear" slope="0.07"/></feComponentTransfer></filter>
  
</defs>
<rect width="1600" height="1000" fill="url(#bg)"/>
<circle cx="800" cy="500" r="560" fill="#3b8fd4" opacity="0.4" filter="url(#blurL)"/><rect x="0" y="0" width="1" height="1000" fill="#fff" opacity="0.05"/><rect x="100" y="0" width="1" height="1000" fill="#fff" opacity="0.05"/><rect x="200" y="0" width="1" height="1000" fill="#fff" opacity="0.05"/><rect x="300" y="0" width="1" height="1000" fill="#fff" opacity="0.05"/><rect x="400" y="0" width="1" height="1000" fill="#fff" opacity="0.05"/><rect x="500" y="0" width="1" height="1000" fill="#fff" opacity="0.05"/><rect x="600" y="0" width="1" height="1000" fill="#fff" opacity="0.05"/><rect x="700" y="0" width="1" height="1000" fill="#fff" opacity="0.05"/><rect x="800" y="0" width="1" height="1000" fill="#fff" opacity="0.05"/><rect x="900" y="0" width="1" height="1000" fill="#fff" opacity="0.05"/><rect x="1000" y="0" width="1" height="1000" fill="#fff" opacity="0.05"/><rect x="1100" y="0" width="1" height="1000" fill="#fff" opacity="0.05"/><rect x="1200" y="0" width="1" height="1000" fill="#fff" opacity="0.05"/><rect x="1300" y="0" width="1" height="1000" fill="#fff" opacity="0.05"/><rect x="1400" y="0" width="1" height="1000" fill="#fff" opacity="0.05"/><rect x="1500" y="0" width="1" height="1000" fill="#fff" opacity="0.05"/><rect x="1600" y="0" width="1" height="1000" fill="#fff" opacity="0.05"/><rect x="0" y="0" width="1600" height="1" fill="#fff" opacity="0.05"/><rect x="0" y="100" width="1600" height="1" fill="#fff" opacity="0.05"/><rect x="0" y="200" width="1600" height="1" fill="#fff" opacity="0.05"/><rect x="0" y="300" width="1600" height="1" fill="#fff" opacity="0.05"/><rect x="0" y="400" width="1600" height="1" fill="#fff" opacity="0.05"/><rect x="0" y="500" width="1600" height="1" fill="#fff" opacity="0.05"/><rect x="0" y="600" width="1600" height="1" fill="#fff" opacity="0.05"/><rect x="0" y="700" width="1600" height="1" fill="#fff" opacity="0.05"/><rect x="0" y="800" width="1600" height="1" fill="#fff" opacity="0.05"/><rect x="0" y="900" width="1600" height="1" fill="#fff" opacity="0.05"/><rect x="0" y="1000" width="1600" height="1" fill="#fff" opacity="0.05"/><path d="M180,420 a150,40 0 1 0 300,0 v70 a150,40 0 1 1 -300,0 Z" fill="#07070b"/><path d="M180,420 a150,40 0 1 0 300,0 a150,40 0 1 0 -300,0" fill="#1b2d44"/><path d="M180,540 a150,40 0 1 0 300,0 v70 a150,40 0 1 1 -300,0 Z" fill="#07070b"/><path d="M180,540 a150,40 0 1 0 300,0 a150,40 0 1 0 -300,0" fill="#1b2d44"/><path d="M180,660 a150,40 0 1 0 300,0 v70 a150,40 0 1 1 -300,0 Z" fill="#07070b"/><path d="M180,660 a150,40 0 1 0 300,0 a150,40 0 1 0 -300,0" fill="#1b2d44"/><path d="M1140,460 a130,36 0 1 0 260,0 v64 a130,36 0 1 1 -260,0 Z" fill="#07070b"/><path d="M1140,460 a130,36 0 1 0 260,0 a130,36 0 1 0 -260,0" fill="#1b2d44"/><path d="M1140,580 a130,36 0 1 0 260,0 v64 a130,36 0 1 1 -260,0 Z" fill="#07070b"/><path d="M1140,580 a130,36 0 1 0 260,0 a130,36 0 1 0 -260,0" fill="#1b2d44"/><path d="M1140,700 a130,36 0 1 0 260,0 v64 a130,36 0 1 1 -260,0 Z" fill="#07070b"/><path d="M1140,700 a130,36 0 1 0 260,0 a130,36 0 1 0 -260,0" fill="#1b2d44"/><circle cx="430" cy="450" r="7" fill="#6fd0ff"/><circle cx="430" cy="570" r="7" fill="#6fd0ff"/><circle cx="430" cy="690" r="7" fill="#6fd0ff"/><path d="M800,230 L1010,310 V520 Q1010,700 800,790 Q590,700 590,520 V310 Z" fill="#07070b" stroke="#9fd3ff" stroke-width="8" stroke-linecap="round" stroke-linejoin="round"/><path d="M800,270 L970,336 V520 Q970,666 800,746 Q630,666 630,520 V336 Z" fill="#10233a"/><path d="M720,500 l27.5,27.5 l49.5,-55" fill="none" stroke="#fff" stroke-width="13.2" stroke-linecap="round" stroke-linejoin="round"/><path d="M560,200 a260,260 0 0 1 160,-90" fill="none" stroke="#9fd3ff" stroke-width="10" stroke-linecap="round" stroke-linejoin="round"/><polygon points="700,90 745,118 705,150" fill="#9fd3ff"/><path d="M1040,800 a260,260 0 0 1 -160,90" fill="none" stroke="#9fd3ff" stroke-width="10" stroke-linecap="round" stroke-linejoin="round"/><polygon points="900,910 855,882 895,850" fill="#9fd3ff"/>
<rect width="1600" height="1000" filter="url(#grain)" opacity="0.5"/>
<rect width="1600" height="1000" fill="url(#vig)"/>
</svg>