<svg xmlns="http://www.w3.org/2000/svg" width="1600" height="1000" viewBox="0 0 1600 1000">
<defs>
  <linearGradient id="g" x1="0" y1="0" x2="0" y2="1">
    <stop offset="0" stop-color="#0e0e14"/><stop offset="0.6" stop-color="#1b2a4a"/><stop offset="1" stop-color="#c23b3b"/>
  </linearGradient>
  <radialGradient id="glow" cx="0.5" cy="0.62" r="0.6">
    <stop offset="0" stop-color="#c23b3b" stop-opacity="0.9"/><stop offset="1" stop-color="#c23b3b" stop-opacity="0"/>
  </radialGradient>
  <filter id="noise"><feTurbulence type="fractalNoise" baseFrequency="0.9" numOctaves="2" stitchTiles="stitch"/><feColorMatrix type="saturate" values="0"/><feComponentTransfer><feFuncA type="linear" slope="0.08"/></feComponentTransfer></filter>
</defs>
<rect width="1600" height="1000" fill="url(#g)"/>
<rect width="1600" height="1000" fill="url(#glow)"/>
<polygon points="672,550 927.9999999999999,550 1760.0000000000002,1000 -160,1000" fill="#000" opacity="0.6"/><rect x="798" y="560" width="4" height="6" fill="#fff" opacity="0.25"/><rect x="797.3333333333334" y="565.679012345679" width="5.333333333333333" height="12.666666666666666" fill="#fff" opacity="0.3055555555555556"/><rect x="796.6666666666666" y="582.716049382716" width="6.666666666666666" height="19.333333333333332" fill="#fff" opacity="0.3611111111111111"/><rect x="796" y="611.1111111111111" width="8" height="26" fill="#fff" opacity="0.41666666666666663"/><rect x="795.3333333333334" y="650.8641975308642" width="9.333333333333332" height="32.666666666666664" fill="#fff" opacity="0.4722222222222222"/><rect x="794.6666666666666" y="701.9753086419753" width="10.666666666666668" height="39.333333333333336" fill="#fff" opacity="0.5277777777777778"/><rect x="794" y="764.4444444444445" width="12" height="46" fill="#fff" opacity="0.5833333333333333"/><rect x="793.3333333333334" y="838.2716049382716" width="13.333333333333334" height="52.666666666666664" fill="#fff" opacity="0.6388888888888888"/><rect x="792.6666666666666" y="923.4567901234568" width="14.666666666666666" height="59.33333333333333" fill="#fff" opacity="0.6944444444444444"/><circle cx="609.1387279331684" cy="396.69089276576415" r="3.6075751213356853" fill="#fff" opacity="0.5374090400058776"/><circle cx="330.5508457124233" cy="444.4012856227346" r="2.3076181057840586" fill="#fff" opacity="0.3471468257252127"/><circle cx="297.94944897294044" cy="406.91569378832355" r="2.8506400296464562" fill="#fff" opacity="0.46071023722179233"/><circle cx="1198.0063669383526" cy="538.3807527949102" r="1.3787552937865257" fill="#fff" opacity="0.47271878705359993"/><circle cx="1548.4298057854176" cy="378.1537076109089" r="2.310136496089399" fill="#fff" opacity="0.5318714250344783"/><circle cx="1134.3901298940182" cy="348.22978080483153" r="3.818933865055442" fill="#fff" opacity="0.31998706557787954"/><circle cx="565.2581430971622" cy="345.05430633435026" r="1.9392181308940053" fill="#fff" opacity="0.5535060525406152"/><circle cx="1076.6558699309826" cy="454.62587896035984" r="3.402321834117174" fill="#fff" opacity="0.4918275615666062"/><circle cx="1102.819836884737" cy="482.2967692860402" r="2.0669540716335177" fill="#fff" opacity="0.6868579399306327"/><circle cx="944.2768536508083" cy="301.17685442091897" r="3.55146368034184" fill="#fff" opacity="0.5581449838820844"/><circle cx="55.83229437470436" cy="335.54731426993385" r="3.4276258582249284" fill="#fff" opacity="0.32797315348871053"/><circle cx="679.8708789050579" cy="308.19034344749525" r="2.085327222943306" fill="#fff" opacity="0.2007947249803692"/><circle cx="1549.9699540436268" cy="443.04112881654873" r="2.1275243079289794" fill="#fff" opacity="0.6213718805927784"/><circle cx="989.8252747952938" cy="377.0683426526375" r="3.90485049597919" fill="#fff" opacity="0.39600473591126506"/><circle cx="332.4892856180668" cy="347.78940143296495" r="3.549246390350163" fill="#fff" opacity="0.4112203047145158"/><circle cx="584.9219016730785" cy="535.3267402504571" r="1.6159886233508587" fill="#fff" opacity="0.4342974013183266"/><circle cx="62.85379007458687" cy="500.4113528528251" r="1.1934921024367213" fill="#fff" opacity="0.6300024804193527"/><circle cx="1120.9621511399746" cy="472.2398473066278" r="2.0902606938034296" fill="#fff" opacity="0.3779114144388587"/><circle cx="903.3589996397495" cy="302.5912672863342" r="1.4583613434806466" fill="#fff" opacity="0.32469220836646856"/><circle cx="639.3919460475445" cy="465.10992898838595" r="2.96279663592577" fill="#fff" opacity="0.5557236521039158"/><circle cx="1209.7574777901173" cy="541.1605236702599" r="1.356150790117681" fill="#fff" opacity="0.5204249103087932"/><circle cx="1107.9267404973507" cy="446.1617358145304" r="3.0678840931504965" fill="#fff" opacity="0.49567104973830284"/><circle cx="521.8838192522526" cy="462.8046269179322" r="3.1676507713273168" fill="#fff" opacity="0.32166950409300626"/><circle cx="1261.1765198409557" cy="460.0620349054225" r="1.8120152987539768" fill="#fff" opacity="0.29467247636057436"/>
<rect width="1600" height="1000" filter="url(#noise)" opacity="0.6"/>
<rect width="1600" height="1000" fill="url(#g)" opacity="0.15"/>
<g font-family="ui-sans-serif, system-ui, sans-serif" font-weight="700" fill="#fff" opacity="0.6">
  <text x="800" y="500" text-anchor="middle" font-size="33" letter-spacing="5">IMAGE À REMPLACER</text>
  <text x="800" y="550" text-anchor="middle" font-size="23" font-weight="500" opacity="0.8">/images/showcase-police.svg</text>
</g>
</svg>