<svg xmlns="http://www.w3.org/2000/svg" width="1600" height="1000" viewBox="0 0 1600 1000">
<defs>
  <linearGradient id="bg" x1="0" y1="0" x2="0" y2="1"><stop offset="0" stop-color="#06070c"/><stop offset="0.62" stop-color="#10141f"/><stop offset="1" stop-color="#1b2238"/></linearGradient>
  <radialGradient id="vig" cx="0.5" cy="0.5" r="0.75"><stop offset="0.5" stop-color="#000" stop-opacity="0"/><stop offset="1" stop-color="#000" stop-opacity="0.55"/></radialGradient>
  <filter id="blurS" x="-50%" y="-50%" width="200%" height="200%"><feGaussianBlur stdDeviation="6"/></filter>
  <filter id="blurM" x="-80%" y="-80%" width="260%" height="260%"><feGaussianBlur stdDeviation="22"/></filter>
  <filter id="blurL" x="-100%" y="-100%" width="300%" height="300%"><feGaussianBlur stdDeviation="70"/></filter>
  <filter id="grain"><feTurbulence type="fractalNoise" baseFrequency="0.85" numOctaves="1" stitchTiles="stitch"/><feColorMatrix type="saturate" values="0"/><feComponentTransfer><feFuncA type="linear" slope="0.07"/></feComponentTransfer></filter>
  
</defs>
<rect width="1600" height="1000" fill="url(#bg)"/>
<circle cx="396.9" cy="36.2" r="0.7" fill="#fff" opacity="0.6392245445866137"/><circle cx="71.3" cy="320.3" r="1.7" fill="#fff" opacity="0.17446645447053014"/><circle cx="444.7" cy="145.1" r="2" fill="#fff" opacity="0.7300457165110856"/><circle cx="1434.4" cy="156.6" r="0.7" fill="#fff" opacity="0.7282216137740761"/><circle cx="728.8" cy="313.2" r="1.6" fill="#fff" opacity="0.23092856970615683"/><circle cx="1517.7" cy="395.8" r="0.9" fill="#fff" opacity="0.4320979254785925"/><circle cx="1042.8" cy="384.6" r="1.5" fill="#fff" opacity="0.38494065483100715"/><circle cx="893.7" cy="108.1" r="1.5" fill="#fff" opacity="0.648566016415134"/><circle cx="373.6" cy="70" r="1.1" fill="#fff" opacity="0.28831114363856614"/><circle cx="261.3" cy="261.8" r="1.9" fill="#fff" opacity="0.21415657200850546"/><circle cx="1492.4" cy="265.5" r="2.1" fill="#fff" opacity="0.19160270397551357"/><circle cx="1286.6" cy="54.7" r="1.2" fill="#fff" opacity="0.4093822112772614"/><circle cx="845" cy="197.8" r="0.8" fill="#fff" opacity="0.6383833747822791"/><circle cx="742.8" cy="272" r="1.6" fill="#fff" opacity="0.36615936183370645"/><circle cx="542.4" cy="393.1" r="1.4" fill="#fff" opacity="0.4413984410930425"/><circle cx="351.5" cy="67.5" r="0.8" fill="#fff" opacity="0.3127301348838955"/><circle cx="851.8" cy="272.3" r="1.9" fill="#fff" opacity="0.6962423090357334"/><circle cx="322.9" cy="371.1" r="1.7" fill="#fff" opacity="0.6560842002276331"/><circle cx="386.7" cy="370" r="1.7" fill="#fff" opacity="0.4325303808320313"/><circle cx="596.8" cy="320.9" r="0.8" fill="#fff" opacity="0.501880661258474"/><circle cx="798.2" cy="379.2" r="1.1" fill="#fff" opacity="0.7025709297973662"/><circle cx="182.8" cy="319.9" r="1.8" fill="#fff" opacity="0.41186992996372285"/><circle cx="1564.8" cy="221" r="0.8" fill="#fff" opacity="0.30753697534091773"/><circle cx="1001.4" cy="118.2" r="2.2" fill="#fff" opacity="0.3988156019244343"/><circle cx="883.8" cy="138.8" r="2" fill="#fff" opacity="0.5611381579656154"/><circle cx="224.1" cy="320" r="1.1" fill="#fff" opacity="0.3589163313154131"/><circle cx="1061.4" cy="218.2" r="2.2" fill="#fff" opacity="0.490792614268139"/><circle cx="1514.4" cy="115.8" r="1.7" fill="#fff" opacity="0.5417277059052139"/><circle cx="803.5" cy="131.3" r="1.2" fill="#fff" opacity="0.4762988519389182"/><circle cx="368.4" cy="39.2" r="0.7" fill="#fff" opacity="0.2575841220561415"/><circle cx="6.4" cy="306.2" r="1.1" fill="#fff" opacity="0.5260076247621327"/><circle cx="1155.3" cy="149" r="0.9" fill="#fff" opacity="0.22252065972425045"/><circle cx="1047.4" cy="121.5" r="1.9" fill="#fff" opacity="0.3904938076157123"/><circle cx="258" cy="36.2" r="0.7" fill="#fff" opacity="0.7406949574593454"/><circle cx="175.2" cy="326.4" r="1" fill="#fff" opacity="0.3137282714713365"/><circle cx="913.9" cy="256.3" r="1.1" fill="#fff" opacity="0.5243090874049813"/><circle cx="1000.9" cy="84.2" r="1.3" fill="#fff" opacity="0.621749758394435"/><circle cx="555.3" cy="385.8" r="1" fill="#fff" opacity="0.3510314302984625"/><circle cx="488.4" cy="242.8" r="1.5" fill="#fff" opacity="0.7488367565441877"/><circle cx="250.2" cy="104.8" r="1.6" fill="#fff" opacity="0.1589185504708439"/><circle cx="245" cy="28.7" r="0.8" fill="#fff" opacity="0.701179375173524"/><circle cx="1042.9" cy="103.7" r="1.5" fill="#fff" opacity="0.37883707084693014"/><circle cx="1512" cy="366.7" r="1.6" fill="#fff" opacity="0.1580512196291238"/><circle cx="1594.7" cy="15.3" r="0.7" fill="#fff" opacity="0.3043855479452759"/><circle cx="1455.6" cy="224.3" r="1.8" fill="#fff" opacity="0.6104812663514166"/><circle cx="324" cy="171.8" r="1.2" fill="#fff" opacity="0.6993163468781859"/><circle cx="357.1" cy="381.4" r="2.2" fill="#fff" opacity="0.3374257378745824"/><circle cx="447.9" cy="386.9" r="2.2" fill="#fff" opacity="0.4424575163517147"/><circle cx="504.1" cy="224.9" r="1.2" fill="#fff" opacity="0.21943997782655061"/><circle cx="322" cy="162.8" r="1.9" fill="#fff" opacity="0.4101346636656672"/><circle cx="1580.5" cy="367.8" r="1.6" fill="#fff" opacity="0.589850325929001"/><circle cx="1081.1" cy="322.3" r="2" fill="#fff" opacity="0.19609282971359787"/><circle cx="557.4" cy="294.2" r="1.6" fill="#fff" opacity="0.5234259929973631"/><circle cx="1180.4" cy="65.6" r="2.1" fill="#fff" opacity="0.26891836398281155"/><circle cx="883.9" cy="228.7" r="0.9" fill="#fff" opacity="0.162550935940817"/><circle cx="235.4" cy="252.7" r="2.1" fill="#fff" opacity="0.5669607995543628"/><circle cx="577.4" cy="30.7" r="0.8" fill="#fff" opacity="0.680895732762292"/><circle cx="963.2" cy="110.1" r="0.8" fill="#fff" opacity="0.3307547281030565"/><circle cx="814.5" cy="314.4" r="1.4" fill="#fff" opacity="0.684589457558468"/><circle cx="1222.6" cy="162.9" r="1.2" fill="#fff" opacity="0.37294167489744723"/><rect x="-20" y="443.6" width="146.6" height="496.4" fill="#0d0f18" opacity="0.95"/><rect x="-12" y="473.6" width="7" height="10" fill="#ffd9a0" opacity="0.6619673273642548"/><rect x="-12" y="553.6" width="7" height="10" fill="#ffd9a0" opacity="0.65994395124726"/><rect x="-12" y="573.6" width="7" height="10" fill="#ffd9a0" opacity="0.6849979408783837"/><rect x="4" y="513.6" width="7" height="10" fill="#ffd9a0" opacity="0.4372535702656023"/><rect x="52" y="453.6" width="7" height="10" fill="#ffd9a0" opacity="0.8994047385407612"/><rect x="52" y="473.6" width="7" height="10" fill="#ffd9a0" opacity="0.7999949511140585"/><rect x="68" y="453.6" width="7" height="10" fill="#ffd9a0" opacity="0.6441306772991083"/><rect x="84" y="513.6" width="7" height="10" fill="#ffd9a0" opacity="0.921339688426815"/><rect x="84" y="573.6" width="7" height="10" fill="#ffd9a0" opacity="0.8374769978458061"/><rect x="84" y="593.6" width="7" height="10" fill="#ffd9a0" opacity="0.9761448401492089"/><rect x="140" y="463.1" width="145" height="476.9" fill="#0d0f18" opacity="0.95"/><rect x="164" y="513.1" width="7" height="10" fill="#ffd9a0" opacity="0.7439043950056656"/><rect x="180" y="613.1" width="7" height="10" fill="#ffd9a0" opacity="0.49872762490995226"/><rect x="196" y="473.1" width="7" height="10" fill="#ffd9a0" opacity="0.7925892529776319"/><rect x="260" y="533.1" width="7" height="10" fill="#ffd9a0" opacity="0.6750235693762079"/><rect x="260" y="553.1" width="7" height="10" fill="#ffd9a0" opacity="0.8710048315580934"/><rect x="260" y="593.1" width="7" height="10" fill="#ffd9a0" opacity="0.35398424324812366"/><rect x="260" y="613.1" width="7" height="10" fill="#ffd9a0" opacity="0.7978882726631127"/><rect x="316.2" y="340.9" width="74.2" height="599.1" fill="#0d0f18" opacity="0.95"/><rect x="324.2" y="470.9" width="7" height="10" fill="#ffd9a0" opacity="0.8648966748150997"/><rect x="340.2" y="430.9" width="7" height="10" fill="#ffd9a0" opacity="0.9743190339067951"/><rect x="340.2" y="610.9" width="7" height="10" fill="#ffd9a0" opacity="0.6872297140303999"/><rect x="356.2" y="610.9" width="7" height="10" fill="#ffd9a0" opacity="0.8365212509990669"/><rect x="412.8" y="443.5" width="106.3" height="496.5" fill="#0d0f18" opacity="0.95"/><rect x="420.8" y="533.5" width="7" height="10" fill="#ffd9a0" opacity="0.4234488429385237"/><rect x="436.8" y="493.5" width="7" height="10" fill="#ffd9a0" opacity="0.5171840532566421"/><rect x="452.8" y="533.5" width="7" height="10" fill="#ffd9a0" opacity="0.501928347197827"/><rect x="468.8" y="573.5" width="7" height="10" fill="#ffd9a0" opacity="0.46673727537272497"/><rect x="484.8" y="493.5" width="7" height="10" fill="#ffd9a0" opacity="0.742791802494321"/><rect x="537.2" y="361.9" width="126.9" height="578.1" fill="#0d0f18" opacity="0.95"/><rect x="598.6" y="319.9" width="4" height="60" fill="#0d0f18" opacity="0.95"/><rect x="545.2" y="371.9" width="7" height="10" fill="#ffd9a0" opacity="0.5533640347421169"/><rect x="545.2" y="591.9" width="7" height="10" fill="#ffd9a0" opacity="0.8312976730521768"/><rect x="545.2" y="611.9" width="7" height="10" fill="#ffd9a0" opacity="0.8391914690611884"/><rect x="561.2" y="411.9" width="7" height="10" fill="#ffd9a0" opacity="0.5758464540587738"/><rect x="561.2" y="451.9" width="7" height="10" fill="#ffd9a0" opacity="0.39647615764988586"/><rect x="561.2" y="491.9" width="7" height="10" fill="#ffd9a0" opacity="0.6286360631696879"/><rect x="577.2" y="411.9" width="7" height="10" fill="#ffd9a0" opacity="0.6016553801717237"/><rect x="577.2" y="491.9" width="7" height="10" fill="#ffd9a0" opacity="0.815052606642712"/><rect x="577.2" y="531.9" width="7" height="10" fill="#ffd9a0" opacity="0.7834879106143489"/><rect x="593.2" y="451.9" width="7" height="10" fill="#ffd9a0" opacity="0.9838944064918905"/><rect x="593.2" y="591.9" width="7" height="10" fill="#ffd9a0" opacity="0.4224688577931374"/><rect x="593.2" y="611.9" width="7" height="10" fill="#ffd9a0" opacity="0.43322799063753337"/><rect x="609.2" y="371.9" width="7" height="10" fill="#ffd9a0" opacity="0.5914751261472702"/><rect x="609.2" y="471.9" width="7" height="10" fill="#ffd9a0" opacity="0.4912013167282566"/><rect x="625.2" y="431.9" width="7" height="10" fill="#ffd9a0" opacity="0.6185683521674945"/><rect x="641.2" y="411.9" width="7" height="10" fill="#ffd9a0" opacity="0.795567268889863"/><rect x="641.2" y="471.9" width="7" height="10" fill="#ffd9a0" opacity="0.5022482498199679"/><rect x="641.2" y="511.9" width="7" height="10" fill="#ffd9a0" opacity="0.7371438471367582"/><rect x="672.9" y="486.2" width="149.3" height="453.8" fill="#0d0f18" opacity="0.95"/><rect x="680.9" y="596.2" width="7" height="10" fill="#ffd9a0" opacity="0.6174864127999171"/><rect x="696.9" y="516.2" width="7" height="10" fill="#ffd9a0" opacity="0.6471254860400222"/><rect x="696.9" y="556.2" width="7" height="10" fill="#ffd9a0" opacity="0.9726428683381527"/><rect x="760.9" y="576.2" width="7" height="10" fill="#ffd9a0" opacity="0.3643962312256917"/><rect x="776.9" y="576.2" width="7" height="10" fill="#ffd9a0" opacity="0.5101947653922252"/><rect x="849.6" y="360.2" width="148.9" height="579.8" fill="#0d0f18" opacity="0.95"/><rect x="857.6" y="370.2" width="7" height="10" fill="#ffd9a0" opacity="0.550097735808231"/><rect x="857.6" y="390.2" width="7" height="10" fill="#ffd9a0" opacity="0.7410489530768245"/><rect x="857.6" y="530.2" width="7" height="10" fill="#ffd9a0" opacity="0.8029475572053343"/><rect x="873.6" y="410.2" width="7" height="10" fill="#ffd9a0" opacity="0.4192892375867814"/><rect x="905.6" y="510.2" width="7" height="10" fill="#ffd9a0" opacity="0.41342395613901317"/><rect x="905.6" y="570.2" width="7" height="10" fill="#ffd9a0" opacity="0.8642588008195162"/><rect x="921.6" y="370.2" width="7" height="10" fill="#ffd9a0" opacity="0.6285663106013089"/><rect x="921.6" y="590.2" width="7" height="10" fill="#ffd9a0" opacity="0.6923537125810981"/><rect x="953.6" y="390.2" width="7" height="10" fill="#ffd9a0" opacity="0.7699583309120499"/><rect x="953.6" y="530.2" width="7" height="10" fill="#ffd9a0" opacity="0.4099347784533165"/><rect x="969.6" y="410.2" width="7" height="10" fill="#ffd9a0" opacity="0.848133377393242"/><rect x="969.6" y="430.2" width="7" height="10" fill="#ffd9a0" opacity="0.5128074344829656"/><rect x="969.6" y="490.2" width="7" height="10" fill="#ffd9a0" opacity="0.7353554825414903"/><rect x="1007.6" y="462.2" width="48.5" height="477.8" fill="#0d0f18" opacity="0.95"/><rect x="1015.6" y="512.2" width="7" height="10" fill="#ffd9a0" opacity="0.8264272020081989"/><rect x="1031.6" y="512.2" width="7" height="10" fill="#ffd9a0" opacity="0.5324186890153214"/><rect x="1084.4" y="440.4" width="107.7" height="499.6" fill="#0d0f18" opacity="0.95"/><rect x="1136.3" y="382.4" width="4" height="60" fill="#0d0f18" opacity="0.95"/><rect x="1092.4" y="450.4" width="7" height="10" fill="#ffd9a0" opacity="0.5538022391730919"/><rect x="1108.4" y="510.4" width="7" height="10" fill="#ffd9a0" opacity="0.8568586536799557"/><rect x="1124.4" y="490.4" width="7" height="10" fill="#ffd9a0" opacity="0.6818434240296483"/><rect x="1124.4" y="610.4" width="7" height="10" fill="#ffd9a0" opacity="0.7260022300411947"/><rect x="1156.4" y="470.4" width="7" height="10" fill="#ffd9a0" opacity="0.5768781914026476"/><rect x="1213.6" y="347.7" width="134.6" height="592.3" fill="#0d0f18" opacity="0.95"/><rect x="1221.6" y="397.7" width="7" height="10" fill="#ffd9a0" opacity="0.4357072926359251"/><rect x="1237.6" y="557.7" width="7" height="10" fill="#ffd9a0" opacity="0.8495763891376555"/><rect x="1237.6" y="597.7" width="7" height="10" fill="#ffd9a0" opacity="0.41248497139895335"/><rect x="1253.6" y="457.7" width="7" height="10" fill="#ffd9a0" opacity="0.6877364288317039"/><rect x="1269.6" y="357.7" width="7" height="10" fill="#ffd9a0" opacity="0.4355146186077036"/><rect x="1269.6" y="537.7" width="7" height="10" fill="#ffd9a0" opacity="0.35017664440674706"/><rect x="1285.6" y="417.7" width="7" height="10" fill="#ffd9a0" opacity="0.43156844506738706"/><rect x="1301.6" y="437.7" width="7" height="10" fill="#ffd9a0" opacity="0.3559498641174286"/><rect x="1301.6" y="537.7" width="7" height="10" fill="#ffd9a0" opacity="0.5716884733410552"/><rect x="1317.6" y="397.7" width="7" height="10" fill="#ffd9a0" opacity="0.40237960884114726"/><rect x="1317.6" y="477.7" width="7" height="10" fill="#ffd9a0" opacity="0.385466809826903"/><rect x="1360.3" y="480.6" width="45.9" height="459.4" fill="#0d0f18" opacity="0.95"/><rect x="1381.3" y="424.8" width="4" height="60" fill="#0d0f18" opacity="0.95"/><rect x="1368.3" y="490.6" width="7" height="10" fill="#ffd9a0" opacity="0.8874253684305586"/><rect x="1368.3" y="550.6" width="7" height="10" fill="#ffd9a0" opacity="0.9401322536286898"/><rect x="1384.3" y="490.6" width="7" height="10" fill="#ffd9a0" opacity="0.39238348086364566"/><rect x="1426.8" y="530.8" width="90.5" height="409.2" fill="#0d0f18" opacity="0.95"/><rect x="1470" y="491.7" width="4" height="60" fill="#0d0f18" opacity="0.95"/><rect x="1434.8" y="600.8" width="7" height="10" fill="#ffd9a0" opacity="0.3624215404037386"/><rect x="1532.4" y="363.8" width="95.9" height="576.2" fill="#0d0f18" opacity="0.95"/><rect x="1540.4" y="373.8" width="7" height="10" fill="#ffd9a0" opacity="0.7928220258792862"/><rect x="1540.4" y="413.8" width="7" height="10" fill="#ffd9a0" opacity="0.6941064938320778"/><rect x="1556.4" y="453.8" width="7" height="10" fill="#ffd9a0" opacity="0.9060907074599527"/><rect x="1572.4" y="413.8" width="7" height="10" fill="#ffd9a0" opacity="0.5096537784556858"/><rect x="1572.4" y="493.8" width="7" height="10" fill="#ffd9a0" opacity="0.5797291523078456"/><rect x="1588.4" y="413.8" width="7" height="10" fill="#ffd9a0" opacity="0.4108440088573843"/><rect x="1588.4" y="433.8" width="7" height="10" fill="#ffd9a0" opacity="0.5626570887630805"/><rect x="1588.4" y="513.8" width="7" height="10" fill="#ffd9a0" opacity="0.4147164990776218"/><rect x="1588.4" y="593.8" width="7" height="10" fill="#ffd9a0" opacity="0.6779747277498245"/><rect x="1604.4" y="453.8" width="7" height="10" fill="#ffd9a0" opacity="0.4564812042866833"/><rect x="1604.4" y="493.8" width="7" height="10" fill="#ffd9a0" opacity="0.9962981859454885"/><rect x="1604.4" y="553.8" width="7" height="10" fill="#ffd9a0" opacity="0.7786240908084436"/><rect x="1604.4" y="573.8" width="7" height="10" fill="#ffd9a0" opacity="0.9432071240618825"/><rect x="0" y="640" width="1600" height="400" fill="#08080c"/><circle cx="520" cy="700" r="320" fill="#ff2a2a" opacity="0.55" filter="url(#blurL)"/><circle cx="1060" cy="700" r="320" fill="#2a6cff" opacity="0.55" filter="url(#blurL)"/><rect x="0" y="820" width="1600" height="6" fill="#fff" opacity="0.12"/><polygon points="380,830 380,649.6 429.2,584 626,551.2 732.6,354.4 1019.6,354.4 1142.6,518.4 1200,584 1200,830" fill="#0a0a0f"/><polygon points="642.4,543 740.8,379 855.6,379 855.6,543" fill="#9fd3ff" opacity="0.28"/><polygon points="880.2,379 1011.4,379 1109.8,526.6 880.2,526.6" fill="#9fd3ff" opacity="0.28"/><rect x="1175.4" y="600.4" width="24.6" height="57.4" fill="#ff3b3b" opacity="0.95"/><rect x="380" y="600.4" width="24.6" height="57.4" fill="#fff5c0" opacity="0.95"/><rect x="757.2" y="288.8" width="106.6" height="57.4" fill="#ff2a2a" rx="2"/><rect x="880.2" y="288.8" width="106.6" height="57.4" fill="#2a6cff" rx="2"/><rect x="544" y="666" width="492" height="41" fill="#fff" opacity="0.75"/><circle cx="552.2" cy="813.6" r="98.4" fill="#0a0a0f"/><circle cx="552.2" cy="813.6" r="41" fill="#3a3a44"/><circle cx="1027.8" cy="813.6" r="98.4" fill="#0a0a0f"/><circle cx="1027.8" cy="813.6" r="41" fill="#3a3a44"/><circle cx="1210" cy="605" r="50" fill="#fff5c0" opacity="0.9" filter="url(#blurM)"/><polygon points="1200,590 1600,520 1600,760" fill="#fff5c0" opacity="0.06"/><circle cx="760" cy="300" r="60" fill="#ff2a2a" opacity="0.35" filter="url(#blurM)"/><circle cx="880" cy="300" r="60" fill="#2a6cff" opacity="0.35" filter="url(#blurM)"/>
<rect width="1600" height="1000" filter="url(#grain)" opacity="0.5"/>
<rect width="1600" height="1000" fill="url(#vig)"/>
</svg>